<svg width="117" height="55" xmlns="http://www.w3.org/2000/svg">
    <g class="layer">
        <path d="M117 45v.3l-.1.3-.4.3-.3.2q-.3.2-.3.4v.3q0 .5-.5 1.8l-.2.4q-.2.3 0 .3 0 .3-.2.4t-.3.3q-.1.3-.8.9t-.8.8q-.1.6-1 1.4t-1.8.8l-.7-.2h-.5l-.3.3-.2.3-1.3.7h-.3l-.6-.2q-.4-.2-.5-.1h-.6q-.2 0-.1.1h-.7l-.7-.1H102l-1-.2-1.1-.3q-.6 0-1.6-.3t-1.2-.6h-.2l-.3-.2-.8.4q-.7 0-.7-.4 0-.3.3-.6-.5-.2-1-1l-.4-.3-.4.1-.3-.1v-.4q0-.2.2-.2-.2-.1-.3-.4-.4-.4-.4-1-1-1.6-1-4.4v-.4h-.5L91 44q0-.3.3-.6t.3-.5l-.1-1v-.4l-.2-1.2q-.2-.9 0-1.2t0-1.5q0-4-.9-5.5-.4-1-1-1.5t-1.4-.7l-1.3-.1h-1.5l-1.8.1-.7.2-1 .1q-.5 0-.7-.2h-3v.5q0 .5-.2.6v.2q0 .2.2.2t-.3.3v.4l1-.2q.3 0 .3.2v.4l-.6.6q-.6.5-.4.6l.1.5v.3l-.4 3 .1.5v.5-.1.9-.2q.2 0 .3.2v.1l-.1.4-.3.3q-.2.1 0 .3t.1.3q.4 1.6.5 3t.1.3.2 0h.1q.2 0 .3.2h.9l.1.6q.1.5.7.4l1.5.2h.7l.5-.3h.9q1.1-.4 1.6.5t.5 2.5q0 1.8-.4 3.3l.3-.1q.4 0 .4.4l-.5.4-.4.4q-.2.3-.5.4-.4.4-1.4.4l-.3.3q-.3.3-.5.2-.2 0-.3-.3t-.1-.2l-.8.1h-2.4l-.5-.1h-.7l-.3-.1-.6.3h-.7q0-.2-.3-.2t-.3-.1q-.6.3-1.3.3h-.3q-.2-.2-1-.2h-.3l-.4.1h-1.1q-.3.3-1.5.3-.7 0-1.3-.4l-.4.1h-.2l-.3-.1-.3-.1h-1q-.7 0-1 .3h-.4q-.8 0-.8-.3l-.5.1-.6.2-.4-.1-.4-.1h-.2l-.5.2H60l-.4-.2-.3.1h-.8l-.4-.1q-.3-.1-.4 0-.4.3-.8.3h-.1q-.8-.2-1-.6l-.1-.1q-.1-.1-.2 0t-.5.1l-.4.1q-.4 0-.4-.2t.1-.3l.9-.8.3-.2v-.4l-.1-1v-.2l-.2-1.4V48l.1-.6-.2.1q-.5 0-.5-.4 0-.2.2-.3h.2l.2-.1.1-.1V46q0-.4.4-.7t1-.2q.9 0 1.2.3H59l.7.1q.4 0 .7-.2t.7-.2l.7.1q.2-.3.4-.3h.4q.3 0 .3.2t.2 0v-.2q0-1.6.2-1.8.4-.2.4-1.2v-.3l-.1-.3-.4.2-.5.2q-.3 0-.3-.3v-.1q0-.2.6-1 .5-.5.7-1l-.1-1.2v-4.7q-.2-.3-.2-1v-2.1l-.6-.1q-.4-.1-.4-.3 0-.2.3-.3l.8-.5v-3.9q0-.7.2-1-.2-.9-.2-1.9V22q-.2-.6-.2-2v-1l.6-2.3-.2-1.5-.2-1.7q0-.7.2-1.1l.1-.7-.1-.6-.5-.9q-.3-.4-.8-.7H62q-1.2 0-1.4-.4h-.1q-.4 0-.6-.2h-2.6l-1-.2q-.5-.2-.5-.4-.2-.3-.2-1.1V5.6l-.1-1.5-.6.2q-.3 0-.3-.3l.2-.6q.4-.4.4-1t.2-.8v-.2q0-.5.5-.7t1-.3l.8.1q.3.2.7.2l1-.2.5-.1h3.3q.2-.2.6-.2l1.2.2q.5-.2 1.5-.2H68l.4.1 1.4.2 1.5.2 1.2-.2.5-.2.7.2.5.1h2.1q.7-.3 2.3-.3h1.1l.4-.2h.6q1.4 0 2 .4l1 .1h.4q.2 0 .3-.2l1 .1h.2l.3-.1h.2l.2.1.2.1h.9l.4.1h.2q1.5-.7 1.9-.7l.5.1.1.2v.2h.2q.2 0 0 0l1-.1H93l1.2.1 1.3.1.9.2h.6l.6-.1.8.1.6.1 1 .4.5.2.6.2.4.2h.4l.2.1h.6l.8.5q.7.5.9 1l.4.3.5.6.5.5q1 .9 1.4 1.5h.3l.6-.2q.3-.2.6 0 .6 0 .6.2l-.2.8-.4.4q-.3.2-.2.4t.1.4q.3.4.3 1v.2q.4 1.2.4 2v.6q.2.8.2 2l.6-.4h.2q.5 0 .5.3 0 .2-.2.3l-.5.3-.4.4q-.3.1-.3.4v.3l-.1.4v.3q0 .7-.4 1.7-.2 1-.6 1.6-.3 1.3-1.1 1.7v.3q0 .5-.7.6-.3 0-.4.5t-.2.6q-.7 1-2.7 1.7-.9.4-1.9.6l-.4.2-.4.2.7.3q.6.3.7.5.3 0 .8.5h.4q.3 0 .3-.2.2 0 .2.3v.3q0 .2-.2.2v.1l.7.6.2.1q.2.1.2 0 .2.1.2.3v.4l.5 1q0 .3.3.3l.4-.2q.4-.2.5-.1.4 0 .4.3 0 .2-.5.8t-.4.6v.8h.2q.4 0 .4.4v.1l-.2.2q-.2.1-.2.3v.7q.2.1.2.6l-.1.5q.7 0 .7.6 0 .2-.2.3-.5.8-.5 1.5 0 1-.2 1.4v1.1l-.1.7v.5q.4.4.4.9 0 .4-.3 1l.1.3.2.2.2.6.4.6h1.1q.5 0 .5-.4V42l.5-2.4-.2-1.4q0-.7.5-1 .2-.3.6-.3h.3q.5-.3.8-.3l.4.1.4.2h.3q.4-.2 1-.2h1.7q1 0 1.5.4.4.2.4.9v.5l-.1 1-.1 1q-.1 3.2-.3 4.6l.6-.3.3.1zm-7.3 4.5.4-.3-1.1.8.7-.5 1-.7 1.1-.7 1-.7.4-.3.4-.3.3-.3.2-.5q-1.7 1-4.8 3.3t-4.8 3.3q.3 0 .7-.3t.7-.4.7-.4l1.6-1 1.5-1zm1-8.7v-.3l-.2.3h.2zm-.5 3 .5-.5-.5.6L112 42q1.2-1.3 2-1.9l-.7.5-.8.5-.7.4-.5.2-.5.3q-.7.4-.7 1v.8zm3-2 .2-.1-.1.1-1 1 .9-.5.7-.5.6-.2v-1.2q-.1.3-.6.7t-.6.7zm-.5-3.1-.7.2-.8-.1.1 1.6 1.5-.8 1.4-.7-.4-.2h-.2l-.5.2-.4-.2zm-4 8.8v.1h.3v-.1h-.2q-.8.8-1.3.8-.4 0-.7-.3l-.7.6-.5.5-4 3.5h.5q.5 0 .8-.2l1-.6.9-.6 2.7-1.8 2.7-1.8q2.7-2 3.7-2.5l.2-.1.2-.1q.2 0 0-.2t.1-.1 0-.2.1-.2v-1.3l-2.4 1.4q-1.1.7-1.5.7h-.5v.6q0 1.3-1.3 1.9zm-11.2 4 .4-.1-.4.1q6.5-4.2 7.9-4.9-.3-.3-.8-1.6l-2.1 1.9-2 1.8-1 1-1.1.8-.3.3-.4.4-.2.3zm6.8-12.5v-.2L101 41l-3.9 2.8q-1.7 1.2-2.8 2.7l2.4-1.4 3.2-1.8 3.4-2 .3-.2.4-.2v-.6q0-1.2.2-1.4zm-.2 3-3.5 3-3.4 3.1 6-3.5 1-.5-.1-.6q0-.5.2-.6v-.5q0-.3-.2-.4zm.3-7-.7.6-1.4.9-.9.5q1.6-.9 2.5-1.2h.2l.2-.1v-.4l.1-.3zm-11.2 4.5 1.6-1-1.6 1 6.3-4 .7-.4 1.2-.7 1.2-.8 1-.8q.4-.3.4-.5L98 36l-2 1-1.8 1.2-.2.1-.2.1-.1.1-.2.1v.2l-.2.1v.6zm11-5.4-1.6 1-1.6.9 1-.5 1.5-.9.8-.5zm-2 3.3-2.7 1.7 1.3-.8 1.5-.9zm-3.8-2.6 1-.7-1 .7q2-1.4 5.4-3.2l-.3-.5-.3-.4-6.4 5 .8-.4.8-.5zm-5.8-1.7 2.6-2q2.5-1.8 3.3-3-.8.1-2 1.2l-2.9 2-.5.4-.8.5.3.9zm6.2-5.7zm7-7q0-.1 0 0t0 .1zm-5.3 3v-.1.1q0-.2.3-.4t.3-.2q-5.6 3.2-8.3 5.3 3.3-1.5 4.2-2.7l.4-.4q.2-.2.5-.1t.4-.2l.8-.4.8-.5q.4-.2.6-.5zM93 28.7l-.5.3q.2 0 .5-.3l-.5.2-.8.2q-.4 0-.5.3l.2.2.8-.4.8-.5zm4.6-1.9-.7.5.7-.5-2.4 1.4-2.4 1.5q-1 .5-1 .8v.3l.2.3v.3l3.5-2.6 1.8-1.2.7-.6q0-.2-.4-.2zm-4.5 8.4.8-.7-.8.7 3-2.3 3.2-2.4-5.3 3-.6.3-.5.2v.3l.2.9zm5-3 .6-.5-.5.5-1.7 1.3 1.8-1.3 2.2-1.5 1.8-1.2-.3-.2q-.4 0-1.2.8l-1.5 1.2-1.1 1zm2.4-4.1q-.7-.1-1.3-.6l.1.4-.2.6-.5.7-.8.7-.8.7-.9.6q-.6.3-.7.6l-.6.4-.4.2q3.3-1.7 6.7-4h-.1l-.3-.2-.2-.1zm6.9-11.6-.7.5-1.5 1-1 .5-4 2.8q-3.7 2.4-6.1 4.3l-1.2.8q-1 .6-1.6 1.2t-.9 1l.2.1.5-.2.6-.4.3-.4q1-.9 2-1.5l6-3.8q1.6-1 6-3.3l.4-.3.4-.6.2-.5.2-.6.2-.6zM88 26.6q2-1 5.7-3.3t5.7-3.3l6.7-3.8.7-.4.7-.4q.2-.2.2-.8l-.1-.9v-.6l-3.9 2.5-4.3 2.9-3.5 2.4-4.2 3-3.7 2.7zm-12 4.7v-.2l-3.8 2.7-3.8 2.8 5-3 2-1.3q.5-.3.5-.5v-.5zM65.3 38l2-1.5 2-1.5q-2.4 1.3-3.5 1.3h-.5V38zM86.4 2.4l-.2.2.2-.2Q82.6 4.8 79.8 7l1 .2q.2 0 .8-.5t.8-.5q3.1-1.8 5.5-3.5h-.2q-1 0-1.3-.2zm9.5.3-.4.3.4-.3q-3.6 2.5-7.2 4.6h.5l.6.1h.5q.3 0 1.6.6l2.4-3 1.9-2.2h-.3zm5.6 1.1-1.4 1 1.4-1L99.7 5l-2.1 1.3q-.6.3-1.7 1.2T94.2 9q1.1-.3 3-1.6Q99.5 6 102 4l-.2-.1h-.3zm-5.7 7v-.2q0-.4.8-1.2t2-1.9 1.1-1l-1 .7-1 .8-1 .6-1.3.6-1.1.4q.7.5 1.3 1.4t.6 1.7l6.8-5.8-3.6 2.2-.4.3-.8.4q-.4.1-.8.5t-.8.4-.6.2l-.2-.1zm10.4-2.9-6.6 4.3L97 14q-.3.2-.3.4v1l3.3-2.3 3.4-2.2 3.3-2.4-.2-.3-.2-.3zm-12 12.3.2.4 8.5-5.4.7-.4 1.2-.7 1.3-.8q.8-.5 1-.8t.3-.5q-4.5 2.5-6.6 3.9l-2 1.1-1.9 1.2-.8.6-1.3 1-.6.4zm13-9.2-2.7 1.6-2.8 1.6-1 .6-1 .6-2.8 1.8-1.4 1 4.1-2.5 4.1-2.5 1.1-.5 1.8-1q.7-.5.7-.7zM93.6 8.7v-.1l.1-.1-.3.1.2.1zM85.7 7l.2-.2-.2.2 2.8-2.8L86 5.5l-2.8 1.6h1.4V7q0-.1.2 0h.8zM78 11h.4l.4-.1q.5 0 .5.4v.1q-.1.3-.6.6t-.7.6v1.2l.1.3.2.2q.2 0 .2.3t-.3.4q-.2.2-.2.7t0 1.3.2 1.3l.1 1.5v1l.1.3q0 .2-.2.3h4.4l.2-.1.5.1q.5-.3 1.2-.3h.2l.6.1h2l.7.2q1-.6 1.8-.6h.5l.3.1h.2q.2 0 .5-.4t.3-.3h.8v-.7l.8-.8q0-.5.7-1.3 0-1.3.6-2.1h-.4q-.7 0-.7-.3l.1-.3.3-.1.2-.2.2-.1.1-.2.2-.1v-.7l-.1-1-.6-.8q-.5-1-1.5-1.6T90 9.4h-.5q-.3 0-.5-.2h-1q-1.2 0-1.8-.2-.4.2-1.6.2H81q-.4 0-.8-.3h-1.4q-.5 0-.8-.3v.8l.1.9v.6zm-4 20.5 2.3-1.5.1-.5v-.3q-5.3 3.2-7.9 4.5-1.4.9-2.5 1.1h-.3q-.3 0-.3.2v.4l.1.2h.5q.5 0 1.7-.5 3-1.3 6.3-3.6zm5.4-8-.6.5.6-.4q-4.8 3.5-7.7 5.2l-1 .7-1 .6q-.3.1-.9.7t-1 .7-.8.8-.8.9l2.7-2 2.6-1.6 3-1.7 2.8-1.5 3.1-1.5q2.3-1.1 2.8-1.5h-.8l-.6.1-.6-.2q-.2.2-.9.2h-.9zm5 .7h.1l-.6.4q.2 0 .5-.4l.6-.5.7-.4q-.4-.2-3.2 2L78 28.2h.5q.2 0 0 0t.1.1l.6-.3 1-.7 1-.7 1.6-1.2 1.6-1.2zm-7.9 4L74 29.6l2.4-1.5 2-1.3q1.4-.8 2.1-1.4L77.8 27l-3.2 1.7L72 30q-1.9 1-3 2t-2.6 1.8l2.7-1.3 2.3-1.3 2.7-1.6q1.9-1.1 2.3-1.5zm-11-5 9.9-7q-2 1-6.1 3.6l-1.5 1-1.8 1.1q-.6.4-.6 1v.4zm10.8-10-.4.4.4-.3-1.5.9q-1.2.8-1.8 1l.5-.2 1.2-.6q.7-.3 1-.2.6 0 .6.4v.2q0 .2 0 0v-1.5zm-1 1.8q-.9.3-.9.5.4 0 .8-.5-1 .4-3.8 2l-1.5 1-1.5 1-.5.3-.8.5-.9.5q-.6.3-.7.5t-.2.4q1.2-1 4.8-2.8t5.1-3.4zm-10 4.8.2-.3h-.2q-.2 0 0 .1t0 .2zm11.2-3.5-6 4.2 1.8-1 1.7-1 1-.6 1.2-.6q.3-.2.3-.5v-.5zm-4.6-2 1.4-.9q-.6.3-1.4 1l3.7-2.2q.7-.3.7-.6v-1.3q-.9 1-4.4 4zM76 8.9l-.7.2.7-.2q-2.3 1-7.1 4l-2.4 1.6-.5.4-.6.4v.5l.1 1q0 1.1-.3 1.9 4.2-3.2 7.3-6l2.6-2.3q1-1 1-1.5zm-10.8 5.5 15.5-12-1.2.6-1.3.7-1 .6q-.5.2-1.4.9t-1 .7L71.3 8 68 10.4l-.5.4-.6.5-.6.3q-.5.3-.7.1l-.1 1-.2 1.4v.2zm13.5-12h-.1l-.8.5-1 .7-.7.5 3-1.7h-.4zm-2 .2h-.1.1L74.4 4l-2.2 1.4L69.8 7l-2.3 1.5-.4.2-.6.4-.7.4q-.5.2-.6.4t-.2.3q.4.3.5.8l5.8-4.2L77 2.5h-.2zM65.3 26.8l.4-.5q.4-.5 1.1-.8t.7-.5l1.7-1.2 1.4-1.1q3.5-2.8 5-4.4l-3.4 2-3.4 1.9-1.6 1-1.6.8q-.3.2-.3 1.4v1.4zm11.1-8.3-.3.5.3-.5q-.7.9-1.8 1.8T72.8 22t-2.1 1.6-2 1.5l4-2.3 2.5-1.4q.6-.6 1-.6l.2.1.1-1.2v-1.1zm0 4.3-4.6 3.5-6.2 4.7q.5 0 1-.3t1.3-.6 1-.6 1-.7 1-.8l7-4.7h-.5l-.6-.2-.4-.3zm-9.7 8.7-.6.3.6-.3-1.3.3h-.2V33q.5-.8 1.5-1.6zm14.9-3.6.6-.4-.6.4q2.6-1.1 9-5l-.1-.2-.1-.2H90q-.1.8-.7 1H89l-.2-.2q-.2-.2-.3 0h-.2l-1 .8-5.8 3.8zM107 9.1l-2.5 1.9-5 3.4-3.2 2.1 3-1.7 3-1.8 4.5-2.6.4-.3v-.4l-.2-.6zm.8-1.7.2-.2-.2.2.5-.6-.3.1-.4.2.2.3zm-2.3-.3-.3-.4-.4-.4-2.4 2.2-3 2.5-3 2.5 4.6-3.1q3-2.1 4.7-3 0-.2-.2-.3zm-2.2-2.3q-.2 0-.5-.4l-1.2 1.4-1.8 1.7-1.4 1.3q3.8-2.3 5.6-3.2-.4-.3-.7-.8zM98 2.6h.1q-.3.2-1 .2l-.7.9-2.2 2.6 2.9-1.6 2.7-1.4-.9-.4-.9-.3zm-4.8-.3h.1-1.8q-.2 0-.5.3t-.6.6-.5.5l-1.5 1.5-2 2 1-.1q.5-.1.8-.4t.9-.5.8-.5l4.8-3.1H94q-.7 0-.9-.3zm-10.8 0-.5.2-.4.3-.5.4q-.4.4-.5.3L77 6.3l-5.4 4.2q2-1.3 4-2.3l.6-.4.1-.3q.3-.6 1.5-.6l.4-.1h.3l.4-.2.7-.4.6-.5 4.6-3-2.3-.4zm-7.3.1-.1.1h-1.6q-.4 0-.6.3L71 4.2l-2 1.5-.6.5-1.1.8L66 8l-1 .9q-.3.2-.3.5L69.9 6q3.5-2.4 5.5-3.5h-.3zm-15.7.1-.5.2-.6.5q-.3.3-.5.3l-.2.1q-.1.1-.2 0t-.1.2-.1 0v.3l.1.9.1.8 1-1.7 1-1.6zm2 0h-1.2q0 .3-.3.7t-.4.6l-1.6 2.4 7-4q-.6.3-1.4.3h-2.1zm5.5 3.9-.8.5.8-.5-1.3.8-1.3.9-.3.2.3.4q1.5-1.5 2.6-2.3zm-1.7 21.9 2.2-1.3 4.8-2.9q2.6-1.6 3-2l-2.6 1.5-2.7 1.6-1.6 1-1.9 1-.4.2-.4.2-.2.3-.2.4zm4.2-1L68 28q-1.2.8-1.9 1l-.8.5-.1.8 2-1.6 2.2-1.6zm-4 14.3v.2q2.8-1.8 6.8-4.7l.7-.4 1-.7 1.2-.8q.8-.5 1-.8t.2-.5l-6.4 3.7-3.8 2.2-.6.5-.2.8v.5zM57 50.5l.6-.4-.6.4 1.6-1.1 2-1.5-.4-.2q-.2-.2-.3-.1l-1.4.9-1.5 1v1zm8.6-8-.2.2q-.2 0-.2.2l.2-.2.2-.1zM76 36.7v-.1q-.8.4-3 2t-3.6 2.2l-1.3 1-1.4 1-.6.2q-.6.2-.7.5t-.4.5q.8-.2 1.8-.7t1.5-.9 1.7-1.2 1.5-1l1.7-1.3 1.8-1.3.4-.2.2-.2.2-.2.2-.3zm-.3 1zm-14.5 9.5h.2-.2zm1.3 0v.1-.1q-.6.6-1.3 1 3.6-2.4 9.3-5.4l2.4-1.2 2.4-1.3q.5-.2.5-.5V38L73 40l-3.4 2.5-3 1.8q-1.2.6-1.9.6l-.1.3v.8q-.2.4-.9.8t-1.2.5zm13.7-12-.8.6L74 37l-1 .6 1.6-1q1-.6 1.4-.6h.2q.2-.2.2-.8zm-17.6 12h-1.2q-.3.3-.3.6v.8l.9-.7.9-.6h-.3zm4.5 4H63h.7l.6-.1.5.1.7-.2 2.2-2 4.4-3.7q-6.6 4.3-9.6 6h.6zm6.2.5q.2 0 .4-.3l-.5.3zm2.7-.2h1.2q.6 0 .7-.2l.6-.6.6-.6 1.3-1.1 1.3-1.2L74 50l-2.8 1.6h.8zm5-5.5-.4.3.4-.3-2 1.2-1.8 1q.8-.3 3.8-2.2zm-1 5.4v-.1h.9l.8-.2h.4q.4 0 1-.5l3.3-3-3.3 1.9-.6.3-.8.4q-.5.2-.6.4l-1.1.8zm6.6-.2q.5 0 .6-.2t.3-.6l-1.3.7.4.1zm1.9-3.9H84q-.3 0-.7.4l-1 1L80 51l1.3-.9 1.5-1q.3-.2.8-.2t.5.3l-.1.4q.4 0 .4.6t-.3 1.2q.6 0 .6-2v-1.2l-.1-.8zm-3.7-.2-.9-.2-.4.1-1.3 1.3-2.6 2.4q2.8-1.8 5.8-3.4H81q-.3 0-.2-.2zm-9 .4.6-.3-1 .7.4-.4L73 47q1.1-.7 1.7-.9l.7-.3 1-.5.4-.3q-.4-.7-.5-2.3L67.9 50q1.4-1 3.9-2.4zm4.3-6.5-4.3 2.5-4.4 2.5-5.6 3.2q-2.2 1.2-3.1 2.3h1.5q.6 0 2-.9 2.4-1.2 5-3l6.3-4 1-.8 1.1-.7.5-.4V41zm-6-4.5 3.5-2 .9-.4q.9-.4 1.2-.7t.4-.7l-6 3.8zM85 28h-.1l.7-.1q.4-.2.8-.7t.6-.6q1.7-1.4 3.6-2.6-6 3.5-7.7 4.2h.3q.3 0 .4-.2l.5-.1.9.1zm4.6.7.4-.3.9-1 .5-.5 2.6-2 6.3-4.4-13 7.5h.8l.5.2 1 .5zm3.7 8.9v.2l4.5-3.6 4.4-3.5-3.4 2.3-3.1 2.2q-1.3.9-2.1 1.2-.3.2-.3.6v.6zm0 4.2.1.1q.2 0 .5-.3.4-.2 1.2-1l1.3-.8 1.1-.9q-1 .8-2.4 1.5l-.5.2-.6.4-.5.3q-.3.1-.2.5zm5.6-1.4q-2.4 1.5-3.8 2.6l3.8-2.6zm-4.4 2.1-.4.4q0-.2.4-.4-.2 0-.4.3t-.4.3-.3.2v.4q.2.3.2 1v.3l.1.8v.6q1-1.1 4.1-3.5l1.1-.9 1.4-1 1.2-.9 1-.6 1.4-1q.4-.4.6-1-1.7 1-4.5 3t-4 2.8q-1.3.8-1.8.8t-.5-.3q0-.5.8-1.3zm.2 7 1-.6q.8-.6 1.6-1.5t1-1l3.4-3q-5 3-5.3 3l-1.2.8-1 .5v.1l.2.8.3.8zm8-3.6-1 .6q.3 0 1-.6L95.5 50l.6.6.6.4h.3q.3 0 .4-.4t.4-.4.4-.4l.2-.2 4.4-4zm-2.7 6.4.3.1.4.1h.1l1-.8q.8-.6 1-1l3.6-3.2-.4-.1q-.3 0-.5.2t-.5.4-.4.4l-1.8 1.2-2.2 1.3-1.9 1 .7.2.6.2zm6.6.6.4-.2h.5l.8-.6q.8-.9 2.5-2.3-2.9 1.9-4.9 3h.3l.3.1zm6.7-4.3q0 .3-1.4 1.2l-.8.7-.8.8h.3l.1.1h.2l.1-.1.3-.2.3-.2.2-.1q0-.7.5-.9.7-.4 1-1.3z"
              fill="#de5823"/>
        <path d="M51.4 24.6v.1q0 .3-.5.7-.3.2-.3.4v.5q0 1-.4 1.5v1l-.2.3v.7q0 .8-.3 2l-.2.7-.2.9q0 .4-.4.5-.4.8-.8 1l-.2 1-.2.6-.3.6-.2.4-.3.3q0 .3-.3.5t-.3.4q-.2.5-.8 1l-.3.5-.5.6-1 .4-.2.3v.2l.1.2v.2l-.7.7-.6.6-.5.8-.5.7q-1.2 1.7-2.5 1.7l-.6-.1q-.8-.2-1.5-1l-.4.3-.4.3q-.3.7-1 .7-.3 0-.6-.3l-.3-.2-.2.1-.2.2-.3.3q-.4.3-.7.3h-.4l-.7.2q-.4 0-.6-.3H29l-1.2.2-1.1.2h-.4l-.4-.1h-.5l-.5.1-.6-.1-.5.1H23l-.4-.1H22l-.5-.2q-.4-.2-.5 0l-.8-.1h-4.1l-.6.1h-.4l-1 .2H14l-.3.1-.5-.1-.4.1h-.3l-.4-.1h-.5l-.3-.1-.3-.1h-1l-.8-.1-1 .1-1.2-.1h-.6L6 47h-.4q-.3.4-.7.4l-.3-.1h-.3l-.3.1-.2.1h-.4q-.3 0-.4-.2h-.8q-.7 0-1-.3-.3-.2-.3-1.2l.2-1.8-.1-1.4v-.4q-.2-.3-.2-.8 0-1.3.9-1.3h.5l.7.1H3l.1.1.8-.3h1.5l1-.3q.3 0 .4.2.4 0 .6-.3t.3-1 .2-.6l-.6.1q-.3 0-.3-.3t.8-1v-.7q0-.2-.1 0v-.7l-.1-.3q-.3 0-.3-.3l.3-.3.3-.3q.2-.7.2-1.6L8 31.1l-.1-1.7v-1.1l-.3.1q-.3 0-.3-.3v-.3q0-.2.4-.3t.2-.2l-.2-1.2V26q-.2-.5-.2-1.1l.1-.7v-1.5l.1-.6v-4.4l-.1-.4q-.1-.3 0-.4l.1-1.4V12l-.2-.6-.2-.6-.1-.3-.1-.3q0-.1-.4 0-.7 0-1-.3l-.6.2q-.4 0-.5-.3-.2-.2-.7-.2l-.7.1q-.5.1-.4 0t-.6 0-.8 0-.4-.5q-.2-.1-.2-1L1 5.5l-.8.2q-.2 0-.2-.2T.2 5l.3-.3.3-.3L1 4V3q.2-.5 1-.5h.5l.7.1h4.2l.2.1h.3q.3 0 .3-.2h1.1l1.4-.2h.5l.5-.2h.2l.6.1.5.1.4.2h1.2l.6-.1h.9q.8 0 1.3.2h.6q.3-.2 1-.2l.8.1h3.5l1-.3q.2 0 .2.3.2-.2.5-.2.5 0 .7.3h1q.3-.4 1-.4h.2l1 .3q.5 0 .8.2l.6-.1.5.1h1.3l.8-.1h.6l.4.1h.1l.4-.1.3.1.4.2q1.2.5 1.6.5 1 .1 2.1.6.3 0 .7.3t.5.2l.3-.1h.5l.1.3V5l.2.2.4.2q.4.2.3.3.4 0 1 .5t.8.6l.3.3.3.4.3.3q.1.3.4.3l.4-.2.6-.2q.4 0 .4.3l-.2.3-.3.3q-.2.2-.2.5l.1.4.6.8.6.8.6.9.4-.1q.3 0 .2.3 0 .3-.2.5l.3.5.5.3.5.4q0 .2-.2.3.3-.1.3.1l-.1.4-.2.5q.5.7.5 1.4.4.7.5 2.5l.3 1.5.2 1.3v2.9l.6-.2.3.1zM41 41.5l.4-.3-.4.3 1.2-.9 1.2-.8-2.5 1.7h.1zm4.1-4.3V37l-9.4 7h.2l.5-.2.7-.5.4-.3 1-.7 1-.7 1.4-1 1.3-.9 2-1 .1-.3.2-.4.1-.3.3-.3.2-.3zm-10.2 7.7v-.2l-.2.2h.2zm12-10.8-.2.2.3-.2q-.1.3-1.8 1.1L43 36.6l4-2.5zm-2.7 1 .4-.2-1.4.9 1-.7.8-.5.9-.6.7-.5.7-.4.3-.3.3-.3q.3-.2.5-1t.1-1.3v-.4l-10.3 6-1 .5-.9.6-.2.3-.3.4-.8.3-.5.5-.4.5-.3.5-.8.3-.1.3-.1.2q-.5.7-.8.8h-.5l-.1-.1H31q-.1.2-.4.2h-.9l-.5.3q-.5.3-.4.5l-.3.4-.3.5-.9 1.5-.7 1 1.8-.6q1-.4 1.6-.9t1.7-1 1.5-1T44 35.2zM21 45.3q.8-.3 1.7-1t2-1.3 1.7-1.1q-.2-.2-.7-.2h-1.8l-.4-.1-.6-.1q-.6 0-.7.3l-.6 1.6-.6 2zm-9.9-.7.7-.5-.7.6v-.1l5.4-3.7.3-.3.5-.4.5-.3q.3-.2.4-.1l.1-.4V39q-3 2.5-9.2 6.4l.9-.2 1.1-.7zm-1.9-9v.2q2.7-2.4 7.4-6L12 32.7l-.6.3q-.6.3-.8.6l-.7.4q-.4.1-.4.5v.6q0 .4-.2.5zm.2-5.6.5-.5-.5.5q1.4-1.4 3.8-3.1l3.4-2.5.7-.4q.7-.4 1-.8t.3-.6l-2 1.3-2.4 1.7-2 1.4-.6.4-1 .7q-.4.3-1 .3h-.2V30zm-.2-3.6.4-.3-.4.3 3.4-2.5-1 .6-1 .6-.4.1q-.4.1-.5.3t-.4.3-.1.4 0 .1zm6.9-22-.2.1h.2q-.2 0-1 .6l.5-.3.5-.3zM39 6l-1.9 1q-1.2.6-1.6 1l-1.1.6-1.3.8-.3.2-.5.3H32q.3.3.5.3l.5-.2 1-.5.8-.6L37.6 7l.4-.3.7-.5.3-.2zm3.4 1.8-.7.3.7-.3-7.3 4.3.5.6.5.7q0-.2.3-.4t.6-.4.4-.3l2.4-2 2.6-2.5zm1.7 2-.4.2h.3q.2 0 .1-.2-1.3.7-5.7 3.6l-.5.3-.6.4-.6.2q.6 1 .8 1.9l5.2-4.3.5-.4q.3-.2.5-.6t.4-.4l.2-.3q0-.3-.2-.4zm-5.8 7.8v-.1l.2-.4q.2-.3.6-.4t.8-.4.7-.4.5-.2l1.2-.8 1.3-.8-4.7 2.6-.4.1h-.3l-.3.1q-.2.1 0 .2v.2q0 .2 0 0l.2.7.3.7.2.7 2.3-1.8 2.7-2Q40.2 18 39 18q-.5 0-.7-.4zM49 22.5v.1-.1q-2.3 2-6.7 5.3l5.6-3.4.3-.2.5-.3.3-.2v-1.3zm-10.5 7.4.7-.5-.7.5 5.9-4.5q-3.2 2.1-4.8 2.7-.6.3-1 .3l-.1 1v.5zm-9.4 10 .7-.4 1-.6.5-.2.5-.4.5-.7 1.4-1.2 1.1-.9.5-.5q.4-.3.3-.6t.2-.7.3-.6q.1-1 .3-1.2l.2-.7.2-.6v-.2l.2-1.1v-.5l.1-.4v-.6l.2-1.8-.2-2.3.3-2.1h-.2q-.5 0-.5-.2l.2-.3.2-.1.2-.1v-1.2l-.3-1-.3-1-.7.4h-.2q-.3 0-.3-.2 0-.3.2-.3l.2-.2.2-.1.2-.2q.2 0 0-.2v-.2L36 16q-.2-.3-.2-.7t-.1-.5q-.4-.2-.8-1 0-.2-.3-.4t-.4-.4l-.3-.2h-.2l-.2.1-.3-.2.2-.4q-.9-.8-2.3-1.4l-1-.5q-.8-.4-1.4-.4l-.5-.1-.3-.1-.4.1-.7.2-.3-.1-.1-.3q-.1-.2-.2-.1h-1.4l-.4.2-.7-.1-.6.1h-1.4q-.6 0-1.1.2h-.3q-.2 0-.2.2t-.1 0-.2.4l.2.8v1.1q.3 0 .3.3l-.1.3-.2.2v3.3l.4-.1q.5 0 .5.2l-.2.4-.4.4q-.4.3-.3.5l-.2.7.2.3.1.2q0 .2-.2.3t-.1.2v.3l.1 1 .1.1.4.1q.3 0 .2.2v.5q0 .2-.4.3t-.2.2v.4l-.2 1.7q-.2 1.1-.1 1.7v.3q.2.6.2 1.4v.4l-.3 1.6v.4h.2q.5 0 .5.4l-.2.6-.1.4v.3l.1.4v2.5l-.1.5v1.5q0 .4-.2.6V40h1q.6-.2 1.3-.2h2.7l.6.2q.5.2 1 0h.5l1.3-.2.3-.1h.2l.3.1h.1q.1 0 0 0zm-20-3.2.3-.2-.3.2 3.3-2.2 3.3-2.1L18 31q.3-.2.3-1v-.7q-1 .6-2.7 2T13 33.4l-2.3 1.7Q9 36.3 9.2 36.6zM9 15.3l.2-.2-.2.2 1.8-1.1h-.7q-.6 0-.8.3t-.4.4l.1.4zm9.3-4.9-1 .6 1-.6-5.4 3.2-1.6 1q-1 .7-1.4.8l-.3.2-.3.2-.2.1q-.2.1 0 .2v.5L9 17q4.3-3.4 6.5-4.5l1-.4q1-.4 1.5-.8t.3-.9zM27 5.6l1.1-.7 1.2-.6q-.3-.1-.7.1t-1 .7-.6.5zm-18 13 2.7-2 2.6-1.6 1.1-.7q1-.5 1.4-1t.8-1l-.6.3-1 .8q-.5.5-.6.4L12.2 16l-2.7 1.6-.2.1-.2.2v.8zm0 1.8v.1l.1.1q3.5-2.3 6.9-4.8-2.6 1.6-5.4 3-.2.3-1.2.7-.3.2-.3.4v.5zm1.8-2.3 1-.6-1 .6 5.9-3.5.7-.4.8-.5q.2-.2.3-.7v-.6l-.1-.7-.1.3q0 .4-.2.6-.3.6-1 1.2l-1.8 1.4-2.5 1.6-2 1.3zm7.6-3.4-.3.1.3-.1-1.8 1.3.6-.3.9-.5q.3-.2.3-.5zm0 1.6-5.7 4.5 4.4-2.7.7-.4.7-.4v-.5l-.1-.5zm-.2 3.5-1.3.7-1.3.8 1.5-.8.3-.2.6-.3.2-.2zM16 22.2l.8-.4-.8.4 2-1q.4-.1.4-.3v-.3l-1.3.9-1.1.7zm.7.3-.8.5-1.1.7 1-.6.9-.6zm31.9 6-.5.3-.9.5-.6.3-1.8 1-1.2.7-1.7 1-2 1.2-1.7 1.1 3.2-1.9 3.3-2 1.2-.6 1.3-.7.3-.2.4-.2.4-.2q.3-.2.3-.4zm-7 2.8v-.1h-.1l-.3.2-.1.1.4-.2.8-.5.7-.5-5 3.2 1.7-1.1 1.8-1.1zm-2.8.9v.1-.1l-.2.1-.6.3q-.3.1-.2.3l.5-.4q.3-.3.5-.3zm-.5-1.3.1-.1v.1l.6-.5h-.5l-.2.5zm.5-4v.2q5.5-4.5 8-7-.8.6-2.5 1.5t-2.6 1.5l-1.3.8-1.3.8q-.3.1-.3.6V27zm0-3.8V23l.2-.2.5-.4.3-.2 1.5-1.1-2.3 1.2-.2.2v.6zm.1-1.7.1-.1q.2-.3 1-.8t1-.8l-.8.3-.9.6-.4.6v.2zm-4.4-10 .6-.6-.6.6 4.5-4-2.6 1.4q-2 1-3 1.7l.5.4.6.5zm-2.6-1.7v-.2q0-.3.3-.8t.7-1 .9-.9.5-.5l-2.1 1.2L30 8.8l1 .4q.8.3.9.5zM28 8.2l.4-.3-.4.3q2.7-2 3.7-3L27 8q.6 0 1.1.2zm-5.3-2-.6.3.6-.3.8-.6-4.7 2.6-4.2 2.4q-2.6 1.5-4.4 3.1l.8-.2.8-.3.8-.4.8-.4 4.1-2.6.4-.3.5-.4V9q0-.3.3-.4.4-.4.8-.5l1-.5 1.2-.7 1-.7zM9.5 12.8l.1-.1-.1.1 1-1 1.1-.8q.6-.4 1-.9t1.2-.8 1.1-.8 1.2-.8 1.1-.7L12 10l-2.6 1.5q-.4.2-.4.8l.2.9.3-.4zM9 10.7l.1-.1H9l1.2-1 1-1 1.3-1.1 1.2-1-1.5 1L10 9q-.9.6-1.7.6l.2.6.3.8.2-.2zM2.4 7.3l1.8-3-.6.3-.8.5q-.3.2-.4.5v.2l.1.4-.1 1zm6.8 15.4 2-1.5 2.4-1.8 4.3-3.4-3.3 2.3q-2 1.5-3 2-1.5 1-1.9 1.1l-.5.4v.9zm9.2-4.6-1 .6 1-.6-5.4 3.3-1.7 1-1.3.9h-.3q-.3 0-.2.2t-.2.2-.1.1-.1.2 0 .3v.1l5.2-3.3 1.3-.9 1.2-.8.6-.3.7-.5.3-.5zM14 25l-.9.6 1-.6q-2.7 1.6-3.7 2.4L14 25zm-2.3 4-.3.1.7-.6-.4.4q-1.4 1-2 1.8l5.7-3.3 1.4-.8 1.3-.7.3-.6.2-1 .1-.6-3 2.2-4 3zm6.6-2.5L15 29.3 11.5 32q4.1-2.6 6-3.5h.3q.2 0 .2-.2t.3-.2 0-.2v-1.5zm-5.4 8.8-.3.1.6-.2q.6-.2 1-.7l.6-.3-1.9 1.1-2.7 1.7-.4.2-.3.2v.6l2.8-1.8 2.6-1.6 1.3-.9 1.4-.8 1-.8v-.6l-.6.5-.5.6-1.4.9-1.7 1-1.5.8zm5.7-2 .1-.2v-.3l-.4.3-.4.2.4-.1.3.2zM15 42.8l-.3.3.7-.6-.4.3Q13.2 44 12.3 45l2-1.2 2-1.1 1-.6 1-.6.1-.2v-1L15 42.7zm4.7-.9-.4.4.2-.2.2-.1-1.4 1-1.5 1.2 4.4-2.6H21l-.5.2-.6.2h-.2zm29.2-15-.5.3-1 .6-.7.3-1.5.9-1 .7q2.7-1.6 3.8-2l.6-.1q.3-.1.3-.3v-.4zM38.1 32l3-1.7 3.1-1.8 1.8-1 2-1.2.3-.2q.2-.2.2 0t.2-.2.2 0 .1-.2.1-.1 0-.2 0-.3v-.5L42.3 29l-1.4 1-1.4.9-.5.3-.6.5q0 .2-.3.3zM49 21q-.3-.5-.4-2.3-.2-.3-.3-1t-.1-.6q-2.8 1.7-5.9 3.9-2 1.4-2.7 2.3-.9.5-.9.8l4.3-2.4q2.9-1.6 4.2-2.5l.4-.2.5-.2.3.1q.3.6-1.4 2-2.3 2.1-7.9 6.7 1.6-.5 4.4-2.4l4-2.6 1.3-1 .2-.2V21zm-1.3-5.4-1.5 1.2Q44.7 18 42.9 19t-2 1.5l5-3 .8-.5 1-.5.2-.3v-.4q0-.3-.2-.3zm-4 .9.5-.4-.8.6.3-.2 2.7-2 .3-.2q.2-.2.3-.1t.1-.2l-.2-.4q-2 1.7-6.4 5l3.2-2.1zm2.5-4q0-.1 0 0l-.3.3-.2.3-.3.2-.2.3q-1.3 1-5.1 3.3 1.2-.6 3.5-2.1l1.2-.9q.9-.7 1.4-.9l.1-.2-.1-.4zm-1.3-2q0 .2-.9 1t-1 1L39.9 15l1.5-1 1.6-.8.7-.5 1-.6q.5-.3.9-.2h.3l-.5-.7-.5-.7zm-1.3-1.7-.3-.3-.4-.4q-1 1.2-4.2 3.9l1.5-1 2.3-1.4 1.1-.8zm-2-1.7q-.2 0-.5-.3t-.4-.2l-.3.2L39 7.9 36 11l2.5-1.6 3.4-2-.4-.2zM36 4.9l-.6.9-.8 1-.8.9-.7.9 5.1-3-1-.4L36 5zm-1.2-.3h-.5q-1 0-1.2-.2l-.3.6-.4.4q-.2 0-.5.4t-.4.4l-2.9 2.3.5-.1.7-.4.7-.5.4-.4 2.3-1.6.3-.2.8-.4.6-.2q.2 0 .2.2V5l.2-.2q.2-.2.3 0l-.8-.3zm-10-.4-.7.4.8-.4-1.5.2h-.8l-.4-.1h-.1l-4.8 3.3q-4.6 3.2-6.6 4.8 2-1.5 4.7-3T20 6.8t5-2.6zm-6.2.2h-.5q-.8 0-1 .2l-1.1.9-1.1.9-4.3 3.6 9.8-5.6q-.2-.2-.5-.2h-.6q-.4 0-.5.2h-.2zM5.8 4.2q-.1.2-.3.2h-.2l-.2-.1-.2.1-.3.5-.3.5-.6.9-.6.9L8 4.4H6.7q-.2 0-.2-.2h-.7zm3.9 22.9h-.1q-.2 0-.2.2v.1l.3-.3zm-.2 5.6v.3l6.2-5.2-4 2.3-1 .6-1 .6q-.3.1-.3.5v.9zM7 41.5q0 .3-.3.5t-.3.2l-.7.8L4 45q7.2-5 11.2-7.2l2.8-1.4q.3 0 .4-.5t.1-1 0-.8q-5.1 3.3-7.8 4.8l-2 1q0 1-.6 1.3-.2.2-.6.2t-.5 0zm-4.4 4.1q.2 0 .6-.4t.7-1 .5-.6L6 41.8h-.4q-.4 0-.8.5t-.8.5-.8.6-.4.3q-.4.2-.4 1.3v.7h.3zm1-3.7-.2.2.2-.2h-.5L3 42q-.5 0-.5.3v.4l1.3-.8zm2.9 3.5h1.1l.5-.1.7-.5q.4-.4.5-.3l2-1.4 2.1-1.3 1.8-1.3 2.1-1.6 1-.9v-1q-2 .7-5 2.6-4 2.4-9 6l.6-.2q.3-.2.4-.1h.8l.4.1zm4.4.2.2-.1.2-.3.1-.2-.5.3-.4.3h.4zm2.2 0 .4-.1h.6l.4-.4.6-.5 1-.8 1.3-1.1-2.6 1.5-2.7 1.6h.5l.4-.2zm6.8-.3q.3 0 .6-.6t.5-1.5.3-1q-3.7 2-5.9 3.4h.1l.4-.2q.3-.2.4 0H18q.3 0 .2.1t.3 0 .3-.1h.5l.5-.1h.2zm4.7.4h.6l.4-.2h.2l.2-.4q1.1-1.5 2.1-3.4H28l-.4-.1h-.1l-.2.2q0 .2 0 0l-1 .6-1 .7-1 .7-2.8 1.8.6.1h.5l.5-.1h.7l.8.1zm6-.3h1l.7-.1q.5 0 1.4-.7l1.4-1 1.7-1.2 1.4-1.1q3.8-2.7 7.4-5.6L42 37.8l-3.6 2.3-9.6 5.4h1l.7-.1h.2zm8 .2h.3-.2q.5 0 1.4-1l-.7.6-.7.4z"/>
    </g>
</svg>
