<svg width="406" height="55" xmlns="http://www.w3.org/2000/svg">
    <g class="layer">
        <path d="M154 45.2v-.1.3l-.1.3-.4.3-.3.2q-.3.2-.3.4v.4q0 .4-.5 1.7l-.1.4q-.2.2-.1.4l-.2.4-.3.2q-.1.3-.8.9t-.8.8q-.1.7-1 1.4t-1.8.8l-.7-.2h-.5l-.3.4-.2.2-1.3.7h-.3l-.6-.1-.5-.2h-.4l-.2.1q-.2.1-.1 0H139l-1-.3-1.2-.2-1.5-.4q-1-.3-1.2-.6h-.2l-.3-.2-.8.4q-.7 0-.7-.4 0-.2.3-.5-.5-.3-1-1l-.4-.4-.4.2-.3-.2V51q0-.2.2-.2-.2 0-.3-.4-.4-.4-.4-1-1-1.6-1-4.4v-.4l-.2.1-.3-.1-.2-.3q0-.3.3-.6t.2-.5v-1.4l-.2-1.2q-.2-.9 0-1.2t0-1.4q0-4-.9-5.6l-1-1.5q-.5-.6-1.4-.7h-4.6l-.7.2-1 .2q-.5 0-.7-.2H115q-.1 0 0 .4t-.2.6v.3l.1.2-.2.3v.4q.5-.3 1-.3.3 0 .3.3v.3l-.6.6q-.6.5-.5.6.2.1.2.5v.3l-.4 3 .1.5v.6-.2.9-.1l.3.1v.2l-.2.3-.2.4v.3l.1.3q.4 1.5.5 2.8v.2l.1.2h.3q.2 0 .3.2h.5l.4.1.1.5q.1.5.7.4l1.5.3.2-.1h.5l.5-.2.5-.1h.4q1.1-.4 1.6.5t.5 2.5q0 1.8-.4 3.3h.3q.4 0 .4.3-.1.3-.5.4l-.4.4q-.2.3-.5.4-.4.5-1.4.5l-.3.2-.5.2q-.2 0-.3-.2t-.1-.3l-.8.1h-.7l-.5.1h-.6l-.6-.1-.5-.1h-1l-.6.2h-.7l-.3-.2h-.3q-.6.2-1.3.2h-.3l-1-.1h-1.3l-.5.1q-.3.2-1.5.2-.7 0-1.3-.3h-.9l-.3-.2h-1q-.7 0-1 .3h-.4q-.8 0-.8-.3l-.5.2q-.3.2-.6.1l-.4-.1-.4-.1h-.2l-.5.2H97l-.4-.1H96l-.2.1q-.1.1-.4-.1H95l-.4-.1q-.4.3-.8.3h-.1q-.8-.2-1-.6h-.1l-.2-.1q0-.1 0 0t-.5.2h-.4q-.4 0-.4-.2t.1-.3l.9-.8.3-.2v-.4l-.1-.9v-.3l-.2-1.4v-.7l.1-.6-.2.1q-.5 0-.5-.4l.2-.2.2-.1h.2l.1-.2v-.5q0-.5.4-.8t1-.2q.9 0 1.2.3H96l.7.2q.4 0 .7-.3t.7-.2l.7.2q.2-.4.4-.4l.4.1.3.1h.2V45q0-1.5.2-1.8.4-.2.4-1.2v-.3l-.1-.3-.4.2-.5.2q-.3 0-.3-.2v-.2q0-.2.6-1 .5-.5.7-1l-.1-1.1v-4.7q-.2-.4-.2-1v-2.2h-.6q-.4-.2-.4-.4t.3-.3l.8-.4v-4q0-.7.2-1-.2-.8-.2-1.8v-.4q-.2-.6-.2-2v-1l.6-2.2-.2-1.6-.2-1.6q0-.7.2-1.2l.1-.6-.1-.7-.5-.9q-.3-.4-.8-.7H99q-1.2 0-1.4-.3h-.1q-.4 0-.6-.3l-.6.1h-.2L94.9 9h-.6l-1-.2q-.5-.2-.5-.4-.2-.3-.2-1.1V5.9l-.1-1.6-.6.2q-.3 0-.3-.3l.2-.5q.4-.4.4-1t.2-.9v-.2q0-.5.5-.7t1-.3q.6 0 .8.2l.7.1 1-.2h1.8l.6-.1h1.4l.6-.1 1.2.1 1.5-.1h.3l.7-.1h.5l.4.2 1.4.2q1 .2 1.5.1l1.2-.2.5-.1h.7q.5 0 .5.3h2q.8-.3 2.4-.3h.8l.3-.1.4-.1.6-.1q1.4 0 2 .4l1 .2.4-.1.3-.2 1 .2h.2q.2 0 .3-.2l.2.1h.2q.2 0 .2.2h.2l.2-.1h.5l.4.1h.2q1.5-.7 1.9-.7l.5.2.1.1v.2q0 .1.2 0h1l.4-.1h.8l1.2.1q1 0 1.3.2l.9.1h2l.6.2 1 .3q.5.1.5.3l.6.1.4.3h1.2l.8.6.9.9.4.4.5.5.5.5 1.4 1.5h.3l.6-.1.6-.1q.6 0 .6.3l-.2.7-.4.4q-.3.2-.2.4t.1.4q.3.5.3 1v.2q.4 1.2.4 2v.7q.2.8.2 2.1l.6-.4.2-.1q.5 0 .5.4l-.2.3-.5.3-.4.3q-.3.1-.3.4v.3l-.1.4v.2q0 .7-.4 1.7-.2 1.1-.6 1.6-.3 1.3-1.1 1.7v.3q0 .5-.7.7-.3 0-.4.5t-.2.5q-.7 1-2.7 1.8l-1.9.5-.4.2-.4.2.7.3q.6.2.7.5.3 0 .8.6l.4-.2q.3-.2.3 0 .2 0 .2.2v.3q0 .2-.2.2v.1q.5.3.7.7h.2l.2.1q.2 0 .2.2v.5l.5 1q0 .2.3.2l.4-.2q.4-.2.5-.1.4.1.4.3 0 .3-.5.8t-.4.6v.9h.2q.4 0 .4.4 0 .2-.2.3t-.2.2v.7q.2.2.2.6l-.1.6q.7 0 .7.5 0 .2-.2.3-.5.9-.5 1.6 0 1-.2 1.4v1l-.1.7v.4q.4.4.4.9 0 .4-.3 1l.1.3.2.3.2.5.4.6.3.1.8-.1q.5-.1.5-.3V42l.5-2.3-.2-1.4q0-.8.5-1.1.2-.3.6-.3l.3.1q.5-.3.8-.3h.4q.3 0 .4.3t.3 0q.4-.2 1-.2h1.7q1 0 1.5.3.4.3.4.9v.6l-.1 1-.1 1q-.1 3.2-.3 4.6l.6-.3.3.2zm-7.3 4.5.4-.2-1.1.8.7-.6 1-.6 1.2-.8 1-.7.3-.3.4-.2.3-.4.2-.4q-1.7 1-4.8 3.3t-4.8 3.2l.7-.2.7-.5q.3-.3.7-.4l1.6-1 1.5-1zm1-8.6v-.3q-.2.1-.2.3h.2zm-.5 3 .5-.5-.5.5 1.8-1.8 2-2-.7.5-.8.6-.7.4-.5.2-.5.2q-.7.4-.7 1v.9zm3-2 .2-.2-.1.2-1 .8.9-.4.7-.4.6-.3v-1.1l-.6.7-.6.7zm-.5-3.2v.1q-.3.2-.7.2l-.8-.2.1 1.6 1.5-.8 1.4-.7-.4-.2h-.2l-.5.2-.4-.2zm-4 8.8v.2h.1l.2-.1v-.1h-.2q-.8.8-1.3.8-.4 0-.7-.3l-.7.6-.5.5-4 3.6h.5q.5 0 .8-.3l1-.6.9-.6 2.7-1.8 2.7-1.8q2.7-2 3.7-2.5l.2-.1.2-.1q.2 0 0-.1t.1-.2 0-.2.1-.2v-1.2l-2.4 1.3q-1.1.7-1.5.7h-.5v.6q0 1.3-1.3 2zm-11.1 4h.3-.3l7.8-4.9q-.3-.3-.8-1.6l-2.1 1.9-2 1.9-1 .9-1.1.9-.3.2-.4.4q-.2.2-.1.3zm6.7-12.5V39l-3.2 2.3q-2.2 1.5-3.8 2.9t-3 2.6l2.5-1.4 3.2-1.8 3.4-2 .4-.2.3-.2v-.6q0-1.1.2-1.4zm-.2 3-3.4 3.1q-2.2 2.1-3.4 3 4-2.5 6-3.4l1-.6-.2-.6q0-.5.2-.6v-.4l-.2-.4zm.3-7-.6.6q-.6.5-1.5.9t-.9.6q1.6-1 2.5-1.3h.3l.1-.2v-.3l.1-.2zm-11.2 4.6 1.6-1-1.6 1 6.4-4 .6-.5 1.2-.7 1.3-.8 1-.8.3-.4-6.1 3.6-1.9 1.1q-1.3.7-1.8 1.2h-.2l-.2.2h-.1l-.2.2v.1l-.2.2v.6zm11-5.5-1.6 1-1.6.9 1-.5 1.5-.8q.7-.3.8-.6zm-2 3.3-2.7 1.7 1.3-.8 1.5-.9zm-3.8-2.6 1-.6-1 .6 5.4-3.2-.3-.4-.3-.5-6.4 5q.3 0 .8-.4t.8-.5zm-5.8-1.7 2.6-2q2.5-2 3.4-3-.9.1-2.2 1.3l-2.8 2-.5.4q-.5.4-.8.4l.3.9zm6.2-5.7zm7-7v.2-.1zm-5.3 3v-.1.1q0-.2.3-.3t.3-.2q-5.6 3.1-8.3 5.2 3.3-1.5 4.2-2.7l.4-.3.5-.2.4-.2.8-.3.8-.6q.4-.4.6-.4zM130 29l-.5.3.5-.3-.5.1-.8.3-.5.2.2.3.8-.5.8-.4zm4.6-2-.7.5.7-.5-2.3 1.5q-1.5 1-2.5 1.4-1 .5-1 .8v.4l.2.2v.3l3.5-2.6 1.8-1.2.7-.6q0-.2-.4-.2zm-4.5 8.4.8-.7-.8.7 3-2.3 3.2-2.4-5.3 3.1-.5.2-.6.3v.2l.2 1zm5-3v.1l.6-.5-.5.5-1.7 1.3 1.8-1.4 2.2-1.5 1.8-1.2-.3-.1q-.4 0-1.2.8l-1.5 1.2-1.1.9zm2.4-4q-.6-.2-1.3-.7l.2.5-.3.6-.5.6-.8.7-.8.7-.9.7-.7.5-.6.4-.4.3q3.3-1.8 6.8-4l-.2-.1-.3-.1-.2-.2zm6.9-11.7-.7.5-1.5 1-1 .6-4 2.7-6.1 4.3-1.2.8q-1 .6-1.6 1.2t-.9 1q.1.2.3.2l.4-.2.6-.5.3-.3q1-1 2-1.6l6-3.8q1.6-1 6-3.3l.5-.3q.3-.2.3-.5t.3-.5.1-.7.2-.6zm-19.3 10 5.6-3.2 5.7-3.4q2-1 6.7-3.8l.7-.4.7-.4q.2-.1.2-.7l-.1-1v-.6l-3.9 2.5-4.3 3-3.5 2.4q-2.2 1.4-4.2 3t-3.6 2.6zM113 31.6v-.3l-3.8 2.7q-2.5 1.7-3.7 2.8l4.9-3 2-1.2q.5-.3.5-.5v-.5zM102.3 38l2-1.4 2-1.5q-2.4 1.3-3.5 1.3h-.5V38zm21.2-35.4-.3.1.3-.1Q119.6 5 116.9 7l.9.2q.2 0 .8-.5t.8-.5q3.1-1.8 5.5-3.5h-.2l-1.2-.1zm9.5.3-.5.3.5-.3q-3.6 2.4-7.3 4.5l.5.1h1.1q.3 0 1.6.7l2.4-3 1.9-2.2-.2-.1zm5.5 1-1.4 1 1.4-1-1.8 1.1-2.1 1.4-1.6 1.2-1.8 1.4q1.1-.3 3-1.6 2.3-1.4 4.8-3.3h-.2l-.3-.1zm-5.7 7v.1q0-.4.8-1.3t2-1.8 1.1-1l-1 .6-1 .8-1 .7q-.8.5-1.3.6t-1.1.3q.7.5 1.3 1.4t.6 1.7l6.8-5.7-3.6 2.2-.4.2-.8.5-.8.4q-.4.1-.8.5t-.6.1h-.2zM143.2 8l-6.6 4.3-2.6 1.8q-.4.2-.4.5v1l3.3-2.3 3.4-2.3 3.3-2.3-.2-.4-.2-.3zm-12 12.4q.2.1.2.3 2.9-1.7 8.5-5.4l.7-.4 1.2-.7 1.3-.8 1-.7.3-.5-6.6 3.8-2 1.2-1.8 1.1-.9.6-1.3 1-.6.5zm13-9.2-2.7 1.5-2.8 1.6-1 .7-1 .6-2.7 1.7-1.5 1 4.1-2.4 4.1-2.5 1.1-.5 1.8-1q.7-.5.7-.7zM130.6 9v-.2q0-.2.1-.1l-.3.1.2.2zm-7.8-1.8.2-.2-.2.2 2.8-2.8-2.4 1.4-2.8 1.5h1.4v-.1q0-.1.2 0h.3l.3.1h.2zm-7.7 3.9h.7q.5 0 .5.3v.1q-.1.3-.6.6t-.6.6v1.5l.3.2.1.4q0 .2-.3.3-.2.3-.2.7t.2 1.5 0 1.3q.2.6.2 1.5v.9l.1.4q0 .2-.2.3h.4l.4-.1h4.2q.5-.2 1.2-.2h2.8l.8.2q.9-.6 1.7-.6h.2l.3.1q.2.1.4 0 .3 0 .6-.3t.3-.3l.3-.1h.5v-.5l.8-.8q0-.6.7-1.4 0-1.2.6-2.1h-.4q-.7 0-.7-.2l.1-.3.3-.2.2-.1.2-.2.1-.1.2-.2v-.7l-.1-1-.6-.7q-.5-1-1.5-1.6t-2.2-.6l-.5-.2q-.3-.2-.5 0h-1q-1.2 0-1.8-.3-.4.2-1.6.2h-1.1l-.5.1H119l-1-.1-.8-.3h-1.4q-.5 0-.8-.3v.9l.1.8v.6zm-4 20.5 2.2-1.5.1-.4q.1-.2 0-.4-5.3 3.3-7.8 4.6-1.5.8-2.6 1h-.3q-.3 0-.3.2v.4l.1.3h.5q.6-.1 1.7-.6 3-1.3 6.3-3.6zm5.3-7.9-.6.4.6-.4q-4.8 3.5-7.6 5.3l-1 .6-1 .7-1 .6q-.7.4-1 .8t-.8.7-.8.9l2.7-2 2.6-1.6 3-1.7 2.8-1.5 3.1-1.5 2.8-1.4-.3-.1h-.5l-.6.1-.6-.2q-.2.2-.9.2l-.9.1zm5 .7.1-.1-.6.4q.2 0 .5-.3l.7-.5.6-.5q-.4-.2-3.2 2l-4.5 2.9h.5q.2 0 0 .1t.2 0l.5-.3 1-.7 1-.7 1.6-1.2 1.6-1.1zm-7.9 4-2.4 1.5 2.4-1.5 2-1.4 2.2-1.3-2.8 1.4-3.2 1.7-2.6 1.5q-1.9 1-3 2t-2.6 1.8l2.7-1.3 2.3-1.3 2.7-1.7 2.3-1.4zm-11-5 9.9-7.1q-2 1-6.1 3.6l-1.4 1-1.9 1.2q-.6.3-.6.9v.4zm10.8-10-.4.3.4-.3-1.5.9-1.8 1 .5-.2 1.2-.5 1-.3q.6 0 .6.5t0 .2v-1.6zm-1 1.7q-.9.3-.9.5.4 0 .8-.5-1 .4-3.8 2l-1.5 1-1.5 1-.5.3-.8.5-.9.5-.6.5-.3.4q1.2-1 4.8-2.8T112 15zm-10 4.8.2-.3h-.2q-.2 0 0 .2t0 .1zm11.2-3.5-6 4.3 1.8-1 1.7-1 1-.7 1.2-.6q.3-.1.3-.5v-.5zm-4.6-1.9 1.4-1-1.4 1 3.7-2.2q.7-.4.7-.6v-1.3q-.9 1.1-4.4 4.1zM113 9l-.7.3.7-.3q-2.3 1-7.1 4l-2.4 1.7-.5.4q-.4.4-.6.3v.5l.1 1q0 1.1-.3 1.9 4.2-3.2 7.3-5.9l2.6-2.4q1-1 1-1.5zm-10.8 5.5L118 2.6l-1.3.5-1.3.7-1 .7-1.3.8-1.2.7q-1 .8-3.4 2.3t-3.4 2.4l-.4.3-.7.5-.6.3-.7.2-.1 1-.2 1.4v.1zm13.5-12h-.1l-.8.5-1 .7-.7.6 3-1.8h-.4zm-2 .3h-.1.1l-2.4 1.4-2.2 1.4-2.4 1.6-2.3 1.5-.4.2-.6.4-.7.4q-.5.2-.6.4t-.2.3q.4.4.5.9l5.8-4.3 5.7-4.2h-.2zM102.3 27l.4-.4 1.1-.8q.7-.4.7-.6l1.7-1.2 1.4-1.1q3.5-2.7 5-4.4l-3.4 2-3.4 2-1.6.8-1.6 1q-.3.1-.3 1.4V27zm11.1-8.3-.3.5.3-.5q-.7.9-1.7 1.8t-1.9 1.6-2.1 1.7-2 1.4l4-2.2 2.5-1.5q.6-.5 1-.5h.2l.1-1.1v-1.2zm0 4.4-4.6 3.4-6.2 4.8 1-.3 1.3-.6 1-.6 1-.8 1-.7 7-4.8h-.5l-.6-.2-.4-.3zm-9.7 8.6-.6.3.6-.3-1.3.3h-.2v1.4q.6-.9 1.5-1.7zm14.9-3.6.6-.3-.6.3q2.6-1 9-5l-.1-.2-.1-.2h-.4q-.2.9-.8 1h-.2l-.2-.1-.3-.1h-.2l-1 .9-5.8 3.7zM144 9.4l-2.6 1.8-5 3.4-3.2 2.1 3-1.7 3-1.7q1-.7 4.5-2.6l.4-.4V10l-.1-.6zm.7-1.8.2-.1-.2.1q.3-.1.6-.6l-.4.2q-.2.2-.4.1 0 .2.2.3zm-2.3-.3-.3-.4-.4-.4-2.4 2.2-3 2.5-3 2.5 4.6-3 4.7-3.2-.2-.2zM140.3 5q-.2 0-.5-.4-.5.8-1.2 1.4t-1.8 1.8-1.4 1.3l5.6-3.3q-.4-.3-.7-.8zM135 2.8V3h.1q-.3.2-1 .2l-.7.8-2.2 2.6 2.9-1.6 2.7-1.4-.9-.3q-.6-.1-.9-.4zm-4.8-.3v.1h.1-1.6l-.6.2-.6.6-.5.5-1.5 1.5-2 2 1-.1.8-.3.9-.6.8-.5 4.8-3-.7-.1q-.7 0-.9-.3zm-10.8 0-.5.2-.4.3-.5.4-.5.4-3.6 2.7-5.4 4.2q2-1.3 4-2.2l.6-.5.1-.2q.3-.7 1.5-.7h.7l.4-.2.7-.5.6-.5 4.6-3q-1.5-.1-2.3-.4zm-7.3.2h-.1l-.6.1-.7-.1-.4.1-.6.3-1.8 1.3-2 1.5-.6.5-1.1.8-1.2 1-1 .9q-.3.2-.3.6l5.2-3.4q3.5-2.4 5.5-3.5h-.2q-.2 0-.1-.1zm-15.7 0-.5.2q-.4.2-.6.5t-.5.4h-.2l-.2.1q-.1.1-.1 0t-.1.2v.2l.1 1 .1.7 1-1.7 1-1.5zm2 0h-.8l-.3.1-.4.6-.4.7L95 6.5l6.9-4q-.6.3-1.4.3h-.1l-.8-.1h-1.2zm5.5 4-.7.5.7-.6-1.3.8-1.3.9-.3.2.3.4q1.5-1.5 2.6-2.3zm-1.7 21.8 2.3-1.3 4.7-2.8 3-2-2.6 1.5-2.7 1.5-1.6 1q-1.2.8-1.9 1l-.4.3-.4.2-.2.2-.2.4zm4.2-1-1.4.8q-1.2.8-1.8 1l-1 .5v.9l2-1.7 2.2-1.5zm-4 14.3v.3l6.8-4.8.7-.4 1-.7 1.2-.8 1-.7.2-.6-6.4 3.8-3.8 2.1-.6.5-.2.8v.5zM94 50.7l.6-.4-.6.4 1.6-1.1 2-1.5-.4-.1-.3-.2-1.4 1-1.5 1v.9zm8.6-8-.2.2-.2.2.2-.2.2-.1zM113 37v-.2l-3 2-3.6 2.3-1.3.9-1.4 1-.5.2q-.5.2-.8.6t-.4.4q.8-.2 1.8-.7t1.6-.8 1.6-1.2 1.5-1l1.8-1.4L112 38l.4-.3.3-.1.1-.2.2-.3zm-.3 1zm-14.5 9.4v.1h.2-.2zm1.3 0v.2-.2q-.6.7-1.3 1.1 3.6-2.5 9.3-5.5l2.4-1.2 2.4-1.3q.5-.2.5-.5v-1.8l-2.7 2q-1.8 1.4-3.5 2.4t-3 1.8q-1.2.6-1.9.6l-.1.3v.8q-.2.4-.9.8t-1.2.5zm13.7-12-.8.7-1.6 1-1 .7 1.6-1q1-.7 1.4-.7h.2q.2-.2.2-.7zM95.6 47.6l-1.2-.1q-.3.3-.3.6v.8l.9-.6.9-.6-.3-.1zm4.5 4h-.1.7q.4 0 .6-.2t.5.1l.7-.2 2.2-1.9 4.4-3.8q-6.6 4.3-9.6 6h.6zm6.2.4.4-.2-.5.2zm2.7-.2h1.2q.6 0 .7-.2l.6-.5.6-.6 1.3-1.2 1.3-1.2-3.7 2.2q-2.4 1.4-2.8 1.5t.1.1h.3l.3-.1q0-.1.1 0zm5-5.4-.4.2.4-.3-2 1.2-1.8 1q.8-.3 3.8-2.2zm-1 5.3.5-.1.4.1.8-.2h.4q.4 0 1-.6l3.3-3-3.3 1.9-.6.3-.8.5q-.5.4-.6.3l-1.1.8zm6.6-.1.6-.3.3-.6-1.3.8h.4zm1.9-4h-.5q-.3 0-.7.5l-1 .9q-1.2 1.3-2.4 2.3l1.3-1q1-.8 1.5-1l.8-.1q.5 0 .5.3l-.1.3q.4 0 .4.6 0 .7-.3 1.2.6 0 .6-2v-1.2l-.1-.7zm-3.7-.2-.9-.2-.4.2-1.3 1.3-2.6 2.3 5.8-3.3-.4-.2h-.2zm-9 .5.6-.3-1 .6.4-.3 1.3-.7 1.7-1 .7-.2 1-.5.4-.4q-.4-.6-.5-2.2l-8.5 7.4q1.4-1 3.9-2.4zm4.3-6.6v-.1l-4.3 2.5-4.4 2.5q-3.6 2-5.6 3.3-2.2 1-3.1 2.2h1.5q.6 0 2-.9 2.4-1.2 5-3l6.3-4 1-.7 1.2-.8.4-.4v-.6zm-6-4.4 3.5-2 .9-.4q.9-.4 1.2-.8t.4-.7l-6 3.9zM122 28h-.1q.3.1.7-.1t.8-.7.6-.5q1.7-1.4 3.6-2.7-6 3.5-7.7 4.3l.3-.2q.3-.2.4 0 .1-.2.5-.2l.9.1zm4.6.7.4-.3.9-.9.5-.5 2.6-2 6.3-4.5-13 7.5h.1l.2.1h.5l.5.2 1 .4zm3.7 9v.1l4.5-3.5q3-2.3 4.4-3.6l-3.4 2.3q-2.2 1.5-3.1 2.3l-2.1 1.2q-.3.1-.3.5v.6zm0 4.2h.1q.2 0 .5-.3l1.2-.9 1.3-.9 1.1-.8q-1 .7-2.4 1.4l-.5.3-.6.3q-.2 0-.5.4t-.2.5zm5.6-1.5-3.8 2.6q1-.5 3.8-2.6zm-4.4 2.1-.4.4.4-.4-.4.3-.4.3-.3.2v.5q.2.2.2.9v.3l.1.8v.6q1-1 4.1-3.5l1.1-.8 1.4-1 1.2-1 1-.6 1.4-1q.4-.4.6-.9-1.7 1-4.5 3t-4 2.7q-1.3.8-1.8.8t-.5-.3q0-.5.8-1.3zm.2 7 1-.6q.8-.6 1.6-1.5t1-.9l3.4-3-5.3 3-1.2.7-1 .6.2.9.3.7zm8-3.6-1 .6q.3 0 1-.6l-7.2 4.3.6.6.6.4h.3q.3 0 .4-.4t.4-.3.4-.5l.2-.2 4.4-4zm-2.7 6.4.3.1.4.2.1-.1 1-.8q.8-.6 1-1l3.6-3.1q-.1-.2-.4-.2-.3 0-.5.2t-.5.4-.4.4l-1.8 1.2-2.2 1.3-1.9 1 .7.3q.5.2.6.1zm6.6.7.4-.2h.5l.9-.7 2.4-2.3q-2.9 2-4.9 3l.3.1h.3zm6.7-4.4q0 .3-1.4 1.3l-.8.7-.8.7.3.1h.2l.2-.1.3-.1.3-.2.2-.2q0-.6.5-.9.7-.4 1-1.3zM168 11.5h-.1q-.4-.1-.4-.5 0-.3.8-1.1.3-.3.3-.6l-.1-.5q-.5-.9-.5-1.9v-.4l.5-1 .1-.8.9-1.4.6-.5v-.1l.1-.3.1-.1q.1-.1.1 0l.6-.4.6-.4.6-.3.6-.3q.6-.3 1-.3.3 0 .4.2.6-.8 1.2-.8h.3l1.3.4q1.4.2 2 .7h.4l.4-.1q.3 0 .3.4l.4.4q.3.2.3.4l.6 1 .5 1q0 .2.4.3t.3.2V5l-.2.5v.2l.1.2q.5 1.1.5 1.6l-.2.6V8q0 .6-.3 1v.7l.1.4-.1.3v.3l-.3.2q-.3 0-.2.1-.1.2-.7.5-.2 0-.3.2t0 .2-.2.3q-.2.7-1.9 1-.7 1.2-1.3 1h-.8l-.5.2q-.2.2-.7.2h-.6l-.3-.2-.2-.1h-.7l-.6-.2-.7-.3q-1.8-.8-2-1.4l-.4-.4-.3-.5q-.3-.3-.5-.3l-.5.1-.6.2h-.2zm6.2-3.4-1.5 1-1.5 1-.3.3.2.3 3.1-2.6zm-2 .2.1-.1h-.1l.5-.2.5-.2-1 .5zm1 4q.8 0 1.2.2l1-1 2.3-2.3.5-.4.9-.8.8-.8.7-.8q.4-.4.2-.5l-9.2 5.4q.3 0 .8.5t.8.5zm8-5.4-.1-.1-4.8 4.9 1.7-1 2-1.2q1.2-.8 1.2-2v-.6zm-1-2.2-.6-1.2q0-.4-.3-.4l-.4.2-1.7 1.5 1.7-1 .4-.1q.2 0 .2.4l-.1.2-.2.4-.2.4-.3.2-.3.3-3.5 2.9 1.9-1.1 1.8-1 1.8-1v-.2l-.2-.5zM175 1.8V2l-.5.1h-.1q-.3 0-.5.5l-.4.6-2.1 2.8 2.6-2 2.9-1.8-2-.5zm-4.6 3.8-.1.4 1-1.1.9-1.2q-.6 0-.8.3t-.6.9-.4.7zm-.3 2.9v.1q5.8-3.5 8.4-5.8l-.2-.1q0-.1-.1 0t-.1-.1l-.4.2-1.7 1-2 1.2-1.8 1.2q-1.7 1.3-2.2 1.3h-.1l-.1-.1.2 1zm-1.1 1.8h-.1l-.2.2-.2.2.6-.3-.1-.1zm19.6 40.5v1.6l-.1 1.3q0 .5-.4.7t-1.1.2h-.7q-1 0-1.4-.2-.5.3-1.1.3l-.5-.1h-2.9q-1.2.5-1.6.5l-.3-.1-.2-.3-.5-.3-1 .3-.5-.3q-.4.4-1.2.4l-.6-.1-.8-.1h-1.2l-.4-.2-.7.3h-1q-.2 0-.1.1h-1.1q-.3 0-.3-.2h-.3l-.5-.1-.6-.1-1.2-.1-.7.2h-1l-.6.3q-.5.3-.6.2h-.1q-.6 0-.6-.6 0-.4.4-.9.3-.2.3-.4v-1.4l.1-1-.1-1.4V49l-.1-1.5q0-.4.8-.9h.9q.3 0 .5.2h.1q.3-.2 1.3-.2l.6-.1.7-.3.5-.1q.1-.1 0-.4t.2-.6v-.6l.1-.5q-.3.3-.6.3t-.3-.3v-.1q0-.3.6-.7.9-.7.9-1.8v-.2l-.3.2-.3.2h-.6V41q0-.2.3-.2t.3-.2.2-.1q.5-.4.5-1.1l-.3-1.8V32h-.3q-.5 0-.5-.2t.2-.3l.3-.2q.3-.1.2-.2l.1-.2v-.7l-.1-.5-.1-.6.1-1 .1-.9-.2-.9h-.3q-.5 0-.5-.2t.2-.3l.2-.1.2-.2v-.2l-.1-.2-.3-.2-.6.3h-.3q-.2 0-.2-.3 0-.4.3-.5h-.9q-.5 0-.7-.2l-1.4.8h-.2q-.4 0-.4-.3t0-.1l-.2.2-.4.3h-.3q-.4 0-.4-.2l.2-.3.3-.3q-.3-.2-.3-1.1v-.6h-.2q-.4 0-.4-.3 0-.5.6-1 .3-.3.3-.8V19l-.1-.5.2-1.6q0-.9 1.5-.9.6 0 1 .3h.3l1.3-.4h.6l.6-.1q.2-.1.4 0h2l1 .2h.8l.8-.1.8.1q.2-.2.6-.2l.4.1.9-.1h1.2l.7.2.6.2q.2-.2.8-.2h1.3q1 0 1.4 1v.5h.2q.3 0 .4.3l.1.3q0 .3-.5 1l-.3.5h.2l.1.2.1.2.1.3q0 .4-.5.9l.2 1.7.2 1.9q0 .8-.2 1.2v1q0 .8-.2 1.3v.4l-.1.5v.1q0 .3.2.5t.3.4-.1.4-.1.4v.9l-.1 1.1v.7l-.2 1.7h.3q.5 0 .5.2l-.2.3-.2.2-.2.1-.1.2-.1.3.4-.2q.2 0 .2.4l-.2.8-.2.6.3-.2.4-.1q.3.1.3.4t-.2.3q-.1.2-.5.3t-.4.5q.3.8.3 1.8l-.1.8-.2 1-.2.8v.2l.3.9.3.9 1 .2h.4l.8.1q1.6 0 2 .2h.3q.6 0 .9.6t.3 1.3q.3 1 .3 1.9v.2l-.1.3zm-1.8.3v.2-.2l-.4.4-.4.4.5-.1.3.1v-.8zm-1.9-2.8h-.7q-.3 0-.6.5-.3.7-1.9 2.9 3.1-2.3 4.5-2.7l.4-.3q0-.4-1.7-.4zm-2.4-.4h-.1l-.5-.2-.4-.2-.3-.6-.2-.5-.1-.6-.1-.5-.7.9-.7.7-.9.7-.8.7-4.5 3.7 7.3-4.5h.5q.2 0 .2.4t-.1.2l-.3.3-.5.4-.4.3q-1 1-3 2.4l5.7-3.6h-.1zm-12-2.6 5.6-3.2 3.2-2 .6-.5.6-.4v-.5l-3.6 2.1-3.5 2.1-2.1 1.2-.4.3-.2.2v.3q0 .3-.2.4zm6.9-5.6.9-.5-.9.5 1-.6 1.4-.8q.6-.3.6-.7l-1.2.9-1.8 1.2zm-4.2 1 2.3-1.3 2.2-1.3 2.5-1.5q.3-.2.3-.6v-.6q-2.5 2-7.3 5.3zm-1.8.4.3-.2-.3.2 2.8-2 3.5-2.4q1.5-1 2.7-2.3-1.5.7-5.1 3l-1.7 1.1-1.7 1.1q-.5.3-.5.7v.8zm9.3-8.4-3 2.4 1-.6 1.5-.7q.4-.2.4-.5v-.6zm-9.4-1.7.4-.3-.4.3-.1.3v1l6-4.8-3 1.7-3 1.8zm-.4-1.7 2-1.4-.4.3-1 .7-.6.4 6.2-4.4 1-.8 1.8-1.3q.8-.6.6-1-3.4 2.5-6.1 4.2-2 1-2.7 1-.5 0-.5-.4v-.1q0-.2.3-.5t.8-.4.5-.3l1.6-1 1.7-1 1.7-1.2 1.6-1.1 1.1-1v-.7l-7 4.4-2.8 1.7.3 1.5v2.4zm9.9-3.4v-.2L179 27l.3-.1.5-.2h.3l.5.1V26zm-.1-3-.4.3.4-.4-3.5 2.9.9-.6.8-.5q1.4-.9 1.7-.9h.3l-.1-.4-.1-.5zm.2 1.5-1 .7-1 .6 2-1.3zM171 36.2l2.5-2-2.5 2q4.8-4 6.8-6l.8-.7 1-1 .6-1h-1q-.7.2-1 .6t-1.1.8-.8.5l-2.7 1.9-2.4 1.8q-.4.5-.4 1.3l.2 1.8zm5.1-3.4.9-.9-.9.9-.5.4-.7.6-.5.5 2.5-1.5 2.5-1.4 1-.7v-2.1q-1.5 1.8-4.3 4.2zm6.2-14.4zm-7.8 3.5 1.8-1.1 1.8-1.2.8-.3q.8-.3 1.1-.7t.5-.5q-.4 0-1 .4t-1.1.8-1 .6l-1.5 1-1.4 1zm-3.2-3.8q-.5 0-.7.3l-.1.2-.4.3-.4.3-2.3 2.3q2.6-1.8 5.4-3.4h-1.5zm-4 .4-.4-.1h-.4q0 .2-.7.9-.9.8-.9 1.5l4.4-2.8h-.5q-.2 0-.3-.2l-.2.2q-.7.5-1 .5zm-2.3.1v.5q.2-.1.2-.3l-.2-.4v.2zm2.3 1.6-.4.3h.1l.2-.2h.2-.1l-.5.2-.6.3-.7.4q-.6.4-.5.5t-.2.5q0 .3.3.5.2 0 .7-.6t.7-.8l1-1 1-.9-.7.5-.5.3zm2 3h.6l.6-.4.7-.5.4-.3 2.4-1.6 4.2-2.4h-1.1q0 .2-.3.5t-1 .6-1.1.6-1 .6-.7.3l-2 1.2-2 1.2.2.1.2.2zm4.4-1.7-.8.6.8-.6-1.2.8-1.2.8-.5.2-.5.3-.1.3v.2q.6-.6 2-1.5t1.5-1zM171 30h.2l-.1-.1zm.3 9q-.1-.2 2.7-2l3.3-2.6q3.5-2.3 3.4-2.8l-3.3 1.8-3.2 1.9-1 .5-1.4.8q-.6.3-.7.6l.2 1.3v.4zm2.8 2-1 .5q-.9.3-1.4.8t-.6.7l3-2zm-4.7 6.6q-.8.8-1.3 1h-.3l-.2-.1-.2.2-1.3 1.8q1.5-.5 4.3-2.3l7.3-4.6.6-.5 1-.7.6-.3q.3.1.3.3 0 .3-.2.4l-1.4 1-1.7 1.2-1.6 1.1 3.6-1.7.4-.1.4-.2q.2 0 .3-.2t.3-.2 0-.2l.3-1.3.2-1.3-.1-.7-7 4.2-1.6.9-1.7.9-.1.4-.2.3-.1.2-.3.2-.3.3zm-2.7 4.7.2-.2-.2.2 8.4-5.2q-3.7 1.8-5.4 3l-1.6 1-1.6 1.2h.2zm-1.5-1.8.2-.3-.2.3.6-.9.7-.9-.4.2-.6.4-.4.2v1zm.2-2q-.3 0-.3.2.4 0 .4-.2zm-.2 3.2q.2 0 .6-.4h-.2l-.1.1-.3-.1v.4zm-1.6 2.4zm5-1.4v-.1h.1l.5.1h.5q.4-.2 1-.2h.5l3.6-2.7 4.6-4-11.4 6.7h.2q.3 0 .4.2zm6.8-1.1-.3.1.3-.1-1 .5-.8.5.8-.3 1-.7.7-.5-.4.2-.3.3zm2.6 1h-.1 1.3q0-.2.3-.2h.3l.3.1q.5 0 2.5-3.4l-1.8 1.1-2.3 1.3q-1.3.8-2 1 .6 0 .8.6l.2-.2.2-.2.3-.1zm5.8-.2.2-.1-.2.1-.2.2q-.2.2-.2 0h.8l.8-.7.6-.5-1.8 1zm59.9-30.8-.2.7-.1.6q-.5 1-2.2 1h-.4q-1 .7-1.9 1 0 .4-.3.7t-.6.4q-.2.3-.3 1t-.3 1q-.7.9-1 2l-.2.6-.4 1-.3.6q-.2 0-.4.5t-.3.5l-.3.8-.1.4-.2.4q0 .2.2.2.3 0 .3.4 0 .5-.3.8-.1.3-.7.7l.1.2q0 .2-.2.3l-.6.8-.6 1.2-.6 1.2-.3.7q-.3.5-.3.8-.1.7-.5 1l-.5.9-.3.9-.3.9q-.4 1.4-.4 2v.3l.1.3q0 .3-.3.7t-.7.7-.5.5q-.5 1.7-1 2.1.1.6-.4 1.4t-1 .7h-.4q-.3 0-.7.3t-.7.3q-.4 0-.4-.4t.2-.6h-1q-.3.3-1.6.3h-.3q-.5 0-1.4.4h-.2q-.6 0-.6-.2t.2-.3-.2-.1h-.2q-.2 0-.3.2h-.1l-.1-.1-.3-.1h-.3q-.3 0-.3.2t-.3 0h-.6q-.4 0-.6-.2-.3 0-.5-.3t-.4-.8-.4-.6q-1-2-1.2-3.1-.3.3-.6.3-.4 0-.4-.5 0-.4.4-1-.3 0-.3-.2 0-.4.4-.6v-.2q0-.2-.2-.3t0-.2l-.1-.1-.1-.1-.3-.6-.3-.6q-.3-.5-.6-1.6t-.5-1.5h-.2q-1 0-1-.3 0-.2.4-.4l.4-.4v-.4l-.2-.1h-.6q-.3 0-.3-.2v-.2l.3-.3.4-.3-.3-.5h-.2l-.3-.1q-.4 0-.4-.2l.2-.4.3-.3V38l-.5-.9q-.2-.5-.4-.5h-.4q-1 0-1-.4 0-.2.3-.3l.3-.2.2-.2-.3-1.2-.5-1.8-.5-1.8q-.4-.4-1.3-2-.4-.7-.4-1.9l-.4-.8q-.6-.3-.6-.8v-.6q0-.3-.4-.4l-.9.2h-.1l-.8-.3h-1q-.6 0-.8-.2-.4.1-.7-.2t-.3-.8-.2-1.1 0-1 0-.8l-.3.2h-.1q-.2 0-.3-.2t-.1-.2v-.2l1-1v-1.2l.2-.4q.2-.2 0-.3t.3-.3.2-.2.3-.1.5 0h.7l.5-.1.5-.1.6-.1.6-.1h.1q.2-.2.8-.2l1 .2 1.1.2.6.1.6.2 1-.2h.4l.6.1h.8l.8-.1h.2l1.1.1h1l.6-.3h1.2q.8 0 1.2-.2h1.6l.8.2h.4l2 .2h.5l.5-.1q.7 0 1 .6.2.2.2 1.1v1.7l-.1 1v.3l-.1 1 .2 1q0 .6-.3 1t-.9.5l-.8.1-.8.2h-1q-.3 0-.6.3t-.5.2-.2.3l.3 1 .3.7q.3-.2.7-.2.4 0 .4.3v.5l-.5.5q-.4.3-.3.6v.2l.4.2.4.3-.2.3.3.7q.7 1.2 1.2 3 .5.9 1.2 3.5l.6 1.4.6 1.6.5-1 .4-.8q.1-1 .6-1.6l.6-1.4q.3-.9.5-1l.2-1 .3-1q0-.2.4-.6t.3-.6l.2-.5.2-.4v-.2l.5-1.9.7-1 .1-.4.4-.5v-.3l-.2-.4-.3-.3v-.2q0-.2.4-.3t.4 0l-.6-.2q-.4-.2-.5-.1h-1.2l-.5.1h-.5q-.8 0-1.1-.7-.2-.2-.2-.8l.2-1.7-.1-.7v-2q-.4 0-.4-.2l.2-.4.3-.3v-.1l-.1-.3v-.3q0-.3.2-.5l.4-.2.5-.3h.2l.6.2q.4.2.5 0h2.2l.5-.2q.3-.2.4 0h.1l1.3.1q.8.1 1 .4.5-.2 1.2-.2h2.2l1-.1h2.8l.6-.2 1.3.2.5-.2q.4 0 .8.5t.5 1q.2.5.2 1.7V20l.1 1v.6zm-12.3-4v.1h-.7q-.2 0-.6.5l-.6.7-.6.7q0 .2-.7 1t-1 1.5l1-.2q.5-.2 1.3-1t.9-.7l3-2h-.6q-.5 0-.9-.2t-.5-.4zm-5 .8v.2l.4-.3.5-.3-.4-.2q-.6 0-.6.6zm0 3.4v-.1.4q.8-1.5 2.8-4l-.7.6-1.2.9q-.5.3-1 .2l.1 1.2v.8zm2.5.4h.2-.2q1.3.2 1.8 1.7.3-.2.3-.5t.2-.3l1-.7 3.7-2.3 3.8-2.3-1.9.2h-2.4v.3q0 .2-.2.1h-.6l-1.5.8-2.4 1.7-1.8 1.3zm5.5 2.9.4-.3-.3.2-.7.5-.3.3 1-.7q4-3 5.3-4.3l-7.2 4.3-.5.3-.5.3-.4.2q-.4.2-.4.4t-.2.4-.3.5l-.3.5-.4.5v.4l-.2.3-.2.2 1.5-1.3 2.2-1.6 1.5-1.1zm-6 6.5-.1.3 2.1-1.4 2.2-1.4.7-.4 1-.6.7-.6q.4-.3.5-.6-2 1-4.1 2.4l-1 .5-1.2.7-.3.3-.3.4-.3.4zm1 4.6-.7.4.7-.4-1 .5-1 .5-1 .7-.9.8q-.2.2-.4.9 1-1 4.3-3.4zm-5 4.8v.1l-.1.2.1-.2V41zm6.8-4-.3.1.3-.1q.2-.1.4-.6t.4-.7q.4-.5.4-.9-5.1 3.7-7 5.6 1.1-.5 3-1.7t2.8-1.7zm2.3-5.3-.4.5-1.1.8-.7.5-2.9 2.5q2.4-1.7 3.9-2.3l.3-.3.3-.4.2-.4.2-.5.2-.4zm-7 4.8.5-.4.6-.4 1.4-1.3 1.3-1 1.2-1 1-1 1-.9q.6-.3 1.2-1.4-2.4 1.2-6.1 4-1.1.6-1.3 1l-.1.3v.3q-.3 1.3-.7 1.8zm-3.8 6.3q-.5-.2-.7-.7l-.3.5-.4.5-1.4.8-1.4.7-1.3.8-2.3 1.4q-1 .6-.8 1l4.7-2.6 1.4-1 1.5-.8 1-.6zm-9.3 3 .1.2 1.5-1.3 1.6-1.4 1.4-1.2 1.5-1.5 1.4-1.4-3 2-3 2-.3.2-.6.4-.5.3-.6.1h-.3l.4.7q.4.5.4 1zm7.8-5.8-5 4.7q2.6-2 4.2-2.4 1.4-.6 1.3-1l-.2-.6-.3-.7zm-1.4-3.8q-.2-1.3-1-2.8l-3 2.3-3.1 2.3 4.6-2.9 1.1-.6.4.4q0 .4-.8 1.3l.5-.2q.6 0 .6.4 0 .3-.4.6l-2.6 2.8q-2.3 2.4-2.9 3.6 1.3-.6 3.8-2.3t2.7-2l.2-.1.5-.3q.3-.2.1-.2l-.2-.7q-.5-.8-.5-1.6zm-2-5.3q-.2-.1-2.7 2.2t-3.3 3q3.3-2.2 6.2-3.6.3-.1.3-.4l-.3-.6q-.3-.4-.2-.6zm-2.2 0 .1-.1-.7.5.7-.4.3-.2.5-.3.4-.3q.2 0 .1-.3v-.2q-.2 0-1.2.7t-2 1.5-2.3 1.5-1.9 1.3-.7.6q3-1.7 6.7-4.3zm-7.2 2.7q.1-.2 1-.7l-.4.2-.4.2-.2.2zm0-1.2v-.1.1q0-.3 1.2-1.4l3.9-3.2-2 1-2 1.2q-.3.3-1 .6t-.7.5l.1.9.2.6.4-.2zm7.3-7-.3.2.3-.3-1.3 1-1 .7 1.2-.7 1.2-.8v-.2zm-2 3.2-.3.2.5-.4-.3.2-3.3 2.7 1.8-1 2-1.2 1.3-.8.5-.2.4-.2V27l-.1-.5q-1.6 1.4-2.6 2zm7.2-10.3V18l-.2-.1-.1.4-.6.6-.7.6-.9.6-.8.5-.7.5-.4.3-5.2 3.8q-2.9 2.2-3.9 3.6l-.3.6q.5 0 1.2-.4l5.4-4 1.2-1q.8-.7 1.4-1t1.3-.7l1-.1.5-.1.4-.1h.2q.3 0 .5.2l.5-.5v-.3l-.1-1v-.7l.2-.9q.2-.5 0-.6zm-3.7-.7h-1l-1.1.9L212 21l-4.1 3.3-.8.6-1 .8q-.4.3-.4.8v.1l1.2-.4 1.3-.6 1-.7q.3-.3 1.3-.7t1-.7q2.7-1.7 8.4-5.7h-.1l-.1-.1H218l-.8-.1zm-2.9.5-.7.5.8-.5q-4.4 2.7-7.6 4.4l-.5.3-.5.4-.6.3-.6.1q.3.3.3 1.2.3.2.5.6 1.6-1.6 4.9-4t4-3.3zm-10.2-.6-.6.1q-.3.1-.4.5t-.4.7-.3.5l-1.7 2.5 3.2-1.6q2.6-1.3 3.9-2.2h-.2q-.2 0 0 0h-.4l-.3.1h-.4l-.4-.1-.3-.2h-.4l-1.3-.3zm-4.1.4-.2.1.2-.1zm-.2 4.2.4-.5.4-.8.3-.6.7-1 .6-1q-.4.4-2 1.2l-.2.1-.1.1-.1.2v.1l-.1.3V22zm4.1 1 .1.1q.1.1.2 0l.6-.5 1.5-.8 1-.4 2.8-1.7L213 18h-.6q-.4 0-.4.2h-.1l-.1-.1-.3-.2-.3-.1-.4.1h-.4q-.6 0-1.7.6t-3.1 1.9-3.2 1.8l.4.2h.5q.3 0 .3.3t.3.3zm2.1 4.6q0 .3.6 1.1l.6-.9q.3-.5 1-.9t.7-.7 1-.8.9-.6q-2.5 1.5-3.5 1.9l-1 .4q-.4.1-.4.3l.1.2zm2.6 6.8.1-.1.3-.3.4-.2q.2 0 .4-.3t.2-.2q-1 .7-1.4.7h-.1l.1.4zm1.3 2.3 1.2-1.1 2.5-2.3 1.6-1.4q-3.4 2.4-5.9 3.8l.3.5.3.5zm.6 1.6v.1l.1.1 1.1-.8 1.1-.8-.7.4-1 .6-.6.4zm.7 1.8 2.5-1.7q2.5-1.7 3-2.2l-4 2.6-.6.3-.6.3q-.2 0-.3.5v.2zm1 3v.2l.1.2q.2-.9 1.9-2.8l2.9-3.2-2.6 1.8-2.6 1.8q-.2 0-.2.4t.3.9.2.7zm9.3 1.2-2.4 1.4q-1.6 1-2.4 1.3l-1.1.7-1.2.7v.2l.2 1 1.7-1.5 1.5-1.2 2-1.4 1.7-1.2zm3 6.4.6-.4.7-.4.3-.6.5-1.3-4.7 4h.5q.3 0 .5-.3t.5-.3.6-.3.4-.4zM228 44v-.1l-5.1 3-6.4 3.7q-1.3.6-1.4.8l.2.3.2.3.3.3h.2l.2-.2q.1-.2.3-.2l6.7-4.1 1.5-1 1.5-1 .6-.5q.5-.3.7-.7t.5-.6zm-9.7 8.4h1.7q.4 0 .7-.2t.7-.5.5-.5.7-.6.5-.5l1.6-1.3q1.1-.8 1.6-1.4l.3-.3.4-.3.3-.3.2-.3.2-.4q-2 1-5.2 3.6l-1.3.9-1.3.9-.5.3q-.5.3-.7.7t-.4.2zm6.1.1.4-.2.2-.4-.9.5.3.1zm1.6 1.6.3-.1-.3.1zm4-14.4-.4.3-.8.5-.6.4-2.3 1.5-4.9 3.2-1.6 1.2-1.7 1.2q-.7.4-1.5 1.2t-1.4 1.5l2-1.2L221 47l2.4-1.3 2.4-1.4 2.4-1.4q.2 0 .3-.2t.1-.1.1-.2.2-.3l.5-.2v-.5l.1-.3.1-.3.5-1.2zm7.4-15.5h-.3.3l.2-.2v-.3l-3.4 2.4q-2.4 1.7-3.5 2.7l3.8-2.2q.3 0 .8-.4t.6-.3l.1-.5.1-.4q.3-.5 1.3-.8zm3.2-1.8.1-.1v.1l.3-.4.4-.4.3-.4q.3-.4.1-.5v-2q0-.7-.3-.8l-.7.4-.7.4q-1.4.7-5.9 3.8L232 24l-1 .7.1.3v.3l2.2-1.4 2.4-1.5 2.2-1.2 2.5-1.3.7-.2q.4 0 .4.3t-.3.6-.7.8-.7.6l-.3.3.5.1.4.2.4-.2zm52.5 12.8h-.1q.2.3-.7 1t-1.7.6q-.4 0-.6-.2-.5.5-1.7.5h-.2l-.5.1h-.8l-.6-.1h-.8l-.3-.1h-.3l-1.4-.2h-.6q-.3 0-.5.2h-.1l-.2-.1-1.4-.2h-.5q-.7.3-1.1.3h-.1q-.5 0-.7-.2h-.3l-.6-.1q-.5 0-1.5.5t-1.4.6h-.2q-.8 0-.8-.7V37l-1.2-.1h-1l-.8.2h-.2l-.5.1-1.1-.2-1-.3-.6.2-1 .6.1.4v.3q.3.4.3.7.4.7.6 1.7l.1.3.3.4q.2 0 0 .3v.6l.1.4 1.5 1.5 1.4 1.4 1 .5q.7.5 1.2.5l.5-.1h2.9q.2 0 .3.2l.3-.3.3-.2h.8l.3.1q.3 0 .6-.3 1.1-1.5 1.8-1.9l.4-.2.2-.2.3-.3q.3-.3.2-.4v-.2q0-.4.7-1l.2-.2V41l.3-.8.3-.7.4-.4q.3-.2.9-.1l.6.2q.5.2.6.1h1.3l.7-.1.7-.1h.3l.2.2q.1.2.2 0h.1l.4-.1.4.1.8-.1q1.3 0 1.3 1.1l-.1 1.3-.2 1.1h.1q.5 0 .5.4l-.1.3-.7.4q-.5.3-.8 1.3v.5q0 .5-.2.9t-.1.4l-.6.6-.6.6q0 .2-.8.6-.3.1-.3.5v.7q0 1.4-2 1.8l-.6.1-.7.2q-.3.1-.4.4l-1.3 1.2q-1.2.8-2.2.8l-.8-.1h-.4l-.5.1h-.4l-.5.2q-.4.2-.5.1l-.3-.1q-.3.3-.7.3h-.6l-.4.1h-.3l-.9.1-1.5-.2h-2.7q-1 0-1.4-.2l-.4-.2-.6-.2-.3-.2q-.3-.2-.5-.1l-1 .7-.6.3q-.2 0-.3-.2v-.5l.4-.3q.4-.2.2-.2-1.4-.1-2.2-.6l-.4.2-.5.2-.4.1h-.2l-.1-.3.1-.5q-.4 0-.4-.5l.1-.3-.3-.3-.7-.4q-.2 0-.8-.5t-.7-.7q-.8-.5-1.2-1.2h-.2q-.2 0-.5.3t-.5.1q-.3 0-.3-.4v-.3l.3-.4q.3-.3.2-.4t0-.2l-.2-.3-.1-.2-.7-.6-.5-.6-.5-.7-.4.1-.5.1q-.6 0-.6-.4 0-.7.7-1.4h-.2q-1 0-1-.6v-.2q0-.4.8-.8l-.4-1.9q-.4-1-.4-1.6v-.2l-.1-.2q-.1 0 0 0t-.4 0q-.4-.2-.4-.6l.1-.3q.5-.3.5-1.4v-1.5l.1-1.2v-2.4q.2-.3.3-1t.2-1q.4-.8.7-2.5t.6-2.3q0-.3.6-.7 0-.5.5-.7.3-.1.4-.5t.3-.6q1.5-1.8 2.5-2.4l1-.7 1-.7q.5-.2 1-.7t1.3-.6h.3q.3 0 .4-.2l.4.2q.2-.4.5-.4t.4.4l.2.4q0 .4-.3.7t-.7.7-.6.6q2.1-1.5 3.1-2h-.3l-.4.2h-.1q-.5-.2-.5-.6 0-.4.3-.6l.7-.2.7-.3.4-.4.4-.5.3-.1.4.2.3.2.8-.5.6-.1h.7l.6.1h.3l1.8.3h2.5l1-.1.6.1q.2 0 .5.3t.6.3.6 0q.4 0 .9.4t.8.4l1 .2q.7.2.8.5l.5.4.7.7q.3.3.5.2l.2-.1q.4 0 .4.4l-.1.2q.1.2.3.2l1.2 1 1.2 1 1 1.2h.6l.2.1.1.2v.2q0 .2-.4.2t-.2 0q.1.2.5.3t.5.5l-.2.4.3-.1.2-.1h.2q.2 0 .5.7l.1.4-.1.6-.2.6v.1q.5.8.5 1.6l.2.7.2.6v2.8q0 .3.3.4.2.1.2.5l-.2 1.2-.3 1.2v.2q0 .2.1 0l.6-.1.3.1zm-5.5-.4 1.2-.7 1.1-.7q.6-.3.6-1l-.1-.9-2.8 3.3zm-9.3 0 .5-.3-.5.3q3-1.7 4.6-3-2.2 1.5-5 3h.4zm-2.2-.2.9-.5h-.1l-.2.1-.2.2h-.2l-.2.2 4.3-2.3q3-1.5 4.4-2.5 1.7-1 3.5-2.5l.6-.4.6-.5-.3-.4q-.1-.2-.3-.2l-.5.3-1 .5-1 .6-2.2 1.3-2.2 1.3-7.7 4.9h.9l.6-.2h.1l.2.1zm-17.8 6.8 1.2-.7q-.2 0-1.2.7l1.8-1 1.9-1 .8-.5q.8-.4 1.2-.8t.3-.7l-6 4zm-2.6 1.1.3-.3-.3.3 3.4-2.6-2.4 1.5-.4.2-.4.1-.2.2q-.2.1-.1.3v.2zm8.7-11.7v.2-.2q.2.4-.7 1.4t-2.4 2.2-1.4 1.2l-3 3q-.8.6-1 1.2h.4q.6 0 1.2-.3 1.8-.9 4.5-2.8l3.7-2.6q2.9-2.1 4.4-3H269l-1.6.1h-1.6q-1.3.2-1.3-1.2v-1l.1-.7-5.3 4.4-1.8 1.4-1.8 1.4-.5.4-.6.5-.2.5q1.7-1 6.9-4.9l.6-.4 1-.7q.6-.3 1-.3t.5.2zm4-13.8-.5.3.5-.3q-2.7 1.4-5 3l5.2-3h-.3zm-2.9 3.3-2.2 1.5L266 20l-.3.1-1.7 1.2-1.8 1.2-1.8 1q-1 .7-1.9 1.1-.7.5-1.3.5h-.3l-.1-.2-.2.2-.2.2v.2l-.2.3v.3q.6.1 1.8-.6 1.4-.6 4-2.4 1.8-1.1 4.7-3.2t4.2-3q-1.4.6-5.2 3.2zm-10.4 9v.2l2.8-2 3.5-2.4 3-2 1.7-1.1 2.1-1.4 1.7-1.2 2-1.5q1-.7 1.5-1.4h-.5l-.6.3-.4.2-.5.4-.5.3-1.6 1.2-1.6 1.2q-4.1 3-6.8 4.7-2.7 1.8-4.4 2.2h-.5l-.2.1-.1.3-.1.3-.5 1.6zm-.6 2.7.3-.1-.3.1.9-.5q.6-.3.8-.6l-.5.3-.9.5q-.4.2-.3.3zm0 1h.1l1.2-.7 1.5-1 1.2-.9 2-1.3 1.7-1-5 3-.8.5-1.3.8-.6.5zm23.1-16.4-.8.4.8-.4q-2.5 1.2-7.3 4.5l.5-.2.7-.4.6-.1.4.2 1.2-.8 1.2-.8 1.7-1 1.8-1.2q-.3-.2-.8-.2zm2 7.4v.1-.2l.2-.6q.2-.4.5-.6l.6-.6.4-.3 1-1 .9-1-5 2.8.6.8.5 1 .4 1 .4-.5.5-.5 1.2-.9q-1.5.8-1.8.8-.3 0-.5-.3zm5.7-1.3-.2.3.2-.3q-.6.1-1.2.5t-1.5 1-1 1l-.6.2-.4.3-.3.3q-.3.2-.2.3 0 .3.3.7l1.2-1 1.4-1.1 1.2-1q.8-.6 1.1-1.2zm5.3 2.4.1-.1v-.2l-.2.2.1.1zm-24.4 9.7 1-.6-1 .6q3-1.9 3.7-2.9l-3.8 3h.1zm3.3-1.4 1-.6q-.6.2-1 .6l4.2-2.4-.7.1-.6.2-.9-.2h-.6l.1.4q0 .8-1.5 1.9zm7.5-4h1.7l.2-.1v-.4l.1-.2v-.9l-.2-.3-.2-.5-.4-1.3q-.2-.9-.5-1.2l-.7-.8-.5-.2-.3-.2h-.2V23h-.1l-.2-.1-.2-.1-1-.3q-1 0-1.4-.4h-.2q-.3 0-1 .4t-.9.5q-.2 0-.4.7t-.4.8l-.4.1h-.4q-.2 0-.3-.2l-.3.1-1 .6q-.8.5-.9.9 0 .8-.4 1.6v.4q0 .4-.2.5 0 .5.3.5h.5l.6-.1h1l.2.1h.5l.4-.1.3-.1.4.2.7-.1h.4l.7.1.6.1q.4-.4 1.6-.4h.9q.4 0 1.7.6zm-12-2.2V27l-.9.6-.9.6.6-.2.7-.5.5-.4zm.2-1h-.1.1zm12.2-4.6 3-4h-.7q-.2 0-.6.5t-.4.3l-3.6 2.5.6.1 1 .3q.5.1.7.3zm-11.8 3.3.6-.8-3.5 2.6-4.4 3 1.9-1.1q1.3-.8 1.8-1.3l1.2-.7 1.1-.7.3-.2.4-.2.4-.3.2-.3zm10.1 6v.2-.1q-.6.4-1.1 1t-1.1 1.7-1 1.3l6-3.6-2.8-.4zm13.7-2-2.5 1.9-2.7 2 2.2-1.2 2.1-1.2 1-.6 1-.5-.2-1.3-.2-1q-.4.2-.6.5.3 0 .3.4v.3l-.2.3-.2.4zm-1.2-5.4q-.1-.2-3 1.5t-3.5 2.2l2.8-1.6q2.3-1.4 3.7-2zm-1.7-2-.5-.2-.6.4h.2q.4 0 .6.2t.2.5l-.2.7-.4.5q-.2 0-.6.5t-.5.4l1.6-1q1-.7 1.5-.8l-.6-.5-.7-.7zm-2-1.6q-.2-.1-.9.5t-1.4 1.6-.9 1l4-2.5-.7-.6zm-2.6-2h-.4l-.3-.1-.3.3-.5.6-.5.7-2 2.7 2.4-1.4 3-1.8-.6-.6-.4-.2-.4-.1zm-6.5-1.3h-.8l-.3.2-.8.9-.8.6-1 .8-.8.6q-2.5 1.9-6 4l-6 4-1.3 1-1.4.9-.4.4-.7.5q-.3.1-.2.5l3.5-2.2 4.2-2.9 3.4-2.5q6.5-4.7 10-6.6l-.3-.1h-.3zm-16.1 4.8h-.2.2l-.5.2-.5.2q.2 0 .3.4l.1-.1.2-.2.2-.2.2-.2v-.1zm-4.7 14.1.1.1.7-.6 1-.8 1-.8 1.4-1.2 1.5-1.1-4.4 2.5-.4.3-.6.3q-.3 0-.3.9v.4zm1 5.8.6-.4q.6-.4.7-.3h-.7q-.8 0-.8-.7 0-.6.8-1.5l2-2.1q1-1.1 2.6-2.3t2.1-2l-4.1 3q-.2 0-2.3 1.5l-.6.3-.9.5-.4.4q.8 2 1 3.6zm-1.6 1.8h.2V43l-.3.1zm.7 1.5-.1.1-.1.2.3-.2v-.1zm2.6.7q0 .2.3.4t.3.3l1-1.2.8-1.1q.3-.5 1.1-1.2t1-1l-5 3.1.5.7zM266 43l-.4.3.4-.3-3.3 2.1-3.8 2.4h.1l2-1.4q1.6-1.2 2.8-1.8t2.2-1.1V43zm-5.8 5.9q.3 0 .6.4t.4.3l.3-.2 1.6-2q.6-.5 1.5-1.7T266 44l-6.6 4.2.5.4.4.3zm2.9 2 .2-.2q-.2 0-.2.2l2.2-1.7 2-1.6q-2 1-5 2.8l.4.3.4.2zm4 1.3.5-.1.5-.5 1-1 1.3-1.3-2.3 1.3-2.3 1.4h.7q.4 0 .6.2zm5.5.9.6-.3q.4-.3.8-1t.5-.7l1.8-1.8q1.3-1.2 1.2-1.5l-.4.1q-2.2 1.1-8 4.9.3.2 1 .2h.6l.4-.1q.5 0 .8.4l.3-.1.4-.1zm4-.4h1.3q.6-.6 1.1-.6.4 0 .8-.5t1-1.1.7-.9l-.9.6-1 .7q-.5.4-.9.5l-1.5.8-.3.2-.3.2zm7.7-3.3h-.1.1l-.7.3-.5.4.5-.3.7-.4zm-2.6 1.9h-.2.2zm2.8-3 1.2-1 1.3-1-1.6 1-1.6 1h.7zm3.7-1.8-.1-.1q-.2 0-1 .8l-1 .7q.9 0 2-1.4zm-3.3-5.3q-.2 0-.5.3t-.2.5l1.1-.8h-.4zm-5.2 5.8-.4.7-.6.8h-.5l-.2.1-.3.2-.8.8-3.2 3.6h.6q.4 0 .8-.5t.6-.4l2.5-1.5L281 49l2.8-1.7 2.5-1.6 2.5-1.5q.6-.3.9-1.5t.3-1.5h-.7l-.6.1-.8.5-1.5 1-2 1.1-1.6 1-1.8 1-1.3 1zm-6.2 1.5-1.4-.2q-.2.5-1 1.2l-2.5 2.7q2.4-1.6 6.2-3.8h-.3l-1 .1zm-3.2-1-.5-.4-.7-.5-.3.3-.2.4q-.6.7-1.4 1.3t-1.9 1.5-1.5 1.2l6.5-3.8zm-2.7-2.5-.4-.4-.3-.4-2 2.3-2 2.3 5.3-3.2-.3-.2q-.3-.2-.3-.4zm-3-6.3-5.5 3.2q-1 .6-2.2 1l-1 .5.2.3.1.3q.2 0 2.4-1.5t4-2.6 2-.8q.1.2-1.1 1.6t-2.9 3.2-1.8 1.9l1.8-1.3 1.8-1.3q3-1.5 3-2-.5-1.2-.7-2.5zm6.2-3.7.7-.1q.3-.1.5-.5t.5-.5.4-.7.4-.5l-2 1.3-1.5 1 .3.1h.4l.3-.1zm3.5 2.1q.4 0 1-.4h-.2q-.6 0-.8.4zm8-3.9-.3.3.3-.3-2.3 1.6q.5 0 1-.4t1.2-.9 1-.8l-.6.3-.3.2zm3 1.9.5-.1h.3q.5 0 .8-.3l1.5-1.8.5-.6.7-.8.6-.8q.4-.5.2-.6l-4 2.3-4.1 2.4h1.7l.7.2q.5.2.6 0zm5.2-.4.1-.2v-.2l-.3.2-.3.3.5-.1zm55.7 7.3v.2l-.1.1-.1.2v1.2l-.1 1-.2.8-.1 1q0 .6-.2.7.2.1.2.4l-.1.7-.3 1-.2.5-.1.3v.5l-.8.6-1.7.8v1q-.2.5-.6.6-.2 0-.5.4t-.7.3q-.4 0-.6-.3t-.5-.3h-.3l-.5.4-.6.4-1.3.3q-.5 0-.6-.3h-1q-.4 0-.7-.2t-.4.1h-.4l-.9-.1-1-.1h-.4l-.3-.1h-.4l-.8.3h-.2q-.4 0-.4-.5l.2-.6-.5-.3-.4-.2-.7-.5q-.5-.4-.9-.5h-.3q-.1.2-.3.2-.2 0-.3-.3t0-.7-.1-.5l-.3-.8-.7.7-.8.8-1 .3q-.7.2-.9.4-.2.1-.4.7t-.4.8q-.3.3-.7.3-.6.5-1 .6t-.9-.3-.7-.4l-.7.5-.6.4h-.3q-.2 0-.2-.2l-.2.1-.4.2-.4.2-.8.2-.6-.2-1.1-.2q-.8-.2-1-.5-.6 0-2.5-.6h-.2l-.5.1-.6.4q-.3.3-.5.3l-.6.1q-.3 0-.3-.4.1-.3 1.1-1-.6-.1-1.5-.7t-1.3-1q-1-1-1.2-1.4l-.6-.7-.3.1-.3.1-.4-.1v-.2q0-.2.3-.4t.4-.4q-.3-.5-.4-1.3-.6-1.3-.6-3.7v-1.1l-.3-.8v-.2l.2-.2.2-.2q.2-.1.2-.3v-.3l.1-1q0-.2.3-.5t.4-.5.3-.1v-.2q0-.4.4-.8t1-.7.3-.4v-.3q0-.2.4-.5t.4-.2q.7-1.1 1.3-1.6.4-.5 1.2-.5h.5l.3.4q.1.2.3.1l.4-.1.2-.2.2-.1.8-.2q.5 0 .6.2 1.1-.8 1.5-.8l1.2-.2 1.5-.4q.7-.5 1.1-.6l.4-.1.4-.2h.1l.3.1h.1l.1-.1.1-.2.2-.1q.5-.4.9-.4l.4.2q.3.2.4 0l.4-.8q.5-1.2 1.3-1.3.3 0 .8-.4t1-.4l-.2-.3.2-.3q-.4 0-.4-.4 0-.2.5-.7t.5-.5q-.5.3-1 .3-.2 0-.2-.2t0-.4q0-.2.8-1l-.3-.3-.5-.5q-.2-.3-.6-.4t-.5-.2h-.6q-.2.1-.4 0t-.3-.2-.2-.3l-.4-.1-.4-.1-.6-.2q-.4-.2-.5-.1h-.5l-.3-.1q-.9 0-1.7.5h-.4l-.3-.1q-.1-.2-.3-.2h-.3l-.3.1.3.1.3.2.3.2.3.2.1.2.1.3v.4q0 .3.2.4.4 1 .4 2t-.4 1.4l.4-.3q.3-.3.5-.2h.2q.2 0 .2.3t-.2.5l-1 .5v.3q0 .2-.3.4t-.5.2q-.2.1-.2.4v.4q0 .4-.3.7l-.8.3q0 .5-.3.7h-1.8q-.4 0-1.2.6t-.2.1q-.2 0-.3-.2-.5.5-.9.5l-.1-.1-.2-.2-.4.3q-.2 0-.3-.3l-.1-.2-.1-.3-.5-.2-1-.7q-1.6-.7-2.6-2.4-.1-.2-.4-.2h-.5q-.3 0-.4.2-.4 0-.6-.3v-.5q0-.2.5-.2l.2-.2.5-1.2q-.2-.6-.2-1.5v-1.9q0-.9.2-1.5.3-.8 1-1.2l.6-.7q0-.4.3-.6.1-.2.7-.5t.8-.6q.6-1 2.6-1.6 1.6-.7 2-.7.6 0 .8.5.1-.4.8-.8t1-.5l1.2-.1 1.2-.2.4.1h1.1l.7.2q.7-.5 1.4-.5.5 0 .8.3.3-.2.7-.2h1.6q1.3 0 2 .3l1.5.4 1.2.4h.2l.7.2.8.2q1.2.3 1.5.7l.9.5.7.6.8.6.7.7q.7.3 1.7 2h.6q.3 0 .4.2t0 .1l-.4.6.3.7h.5l.2.3-.2.2q0 .2-.2.2t-.1.2v.1l.1.7.1.5.4-.2q.4 0 .4.8v.4q-.2 1-.7 1.4v.4l-.1.4q-.1.2.2 1 .2-.2.5-.2.4 0 .4.5v.3q-.2.5-.8 1v.4l.1.4v.8l-.1 1.4.4-.2q.3 0 .3.4 0 .7-.4 1.1t-.5.8v.9l.2 1v.7l.1.1q.2 0 .3.2v.8q0 .3-.3.5v.7q0 .4.2.6.2.3.2.7v.6l-.2.6-.2.3v.2l-.1.3-.1.6.3 1.5 1.2-.3v-.7l.1-.4.1-.4v-1.2q0-1 .2-1.4l-.2-.4-.2.1h-.2q-.3-.1-.3-.3 0-.3.3-.5l.4-.3v-.6q0-.4.3-.7t.6-.3q1 0 1.5.2.1-.2.5-.2l.6.1h1q.9 0 1.4.2.7.3.7 1.6v1.6l.1.3q.3 0 .4.2zm-2.4 4.6-1.3 1 1.3-1q-5 3.8-7.4 5.9l2.4-1.4 2.4-1.5.7-.4 1.2-.7q.5-.3.5-.5v-.2l.1-.5v-.7zm-5.8 5.8h.1-.1l1-.5-1 .5zm5-9.4h.1l-.1.1.4-.2.6-.2q.3-.1.2-.3l-.1-.6-.1-.8v-.7l-.3.4-.3.3q.4 0 .4.3 0 .5-1.8 2.4l.6-.4.5-.3zm-1.7-.3h-.1v.1-.2q0-.3.5-.8t1-1.2.5-.6q-.4 0-1 .6t-1.2.4v1.4l-.1 1.1v.3l.7-.8q-.2 0-.3-.3zm.5-2.7h-.5q-.4 0-.4.3l.2.1.4-.2.3-.2zm-3.1 7.8h.3-.3l-.6-.1-.4-.2-.3.2-2.2 1.6-3.7 3h.2l.6.2 1.1-.7 1.2-.8 1.1-.8 4.5-3.1q2.3-1.5 3-1.8l.3-.1q0-.1.2 0t0-.2.2 0 0-.2.1 0 0-.3.1-.2V44l.1-.3-1 .8-1.4.9-1.1.5q-.1.5-.8 1.2t-1.2.7zm-8.1 4.2.7-.4 1.1-1 .7-.5 3.3-2.6-3 2-3.4 2.2.3.2.3.1zm5.7-5.4-1 .7-1.4.8-1.1.7q-2.4 1.4-3.6 2.5.3.1 2-1.1t3.4-2.5 1.7-1.1zm-.6-2.2V44q-5.2 3.4-8 6.2h.3q.5 0 3.2-1.8l1.8-1 1.3-.8.5-.3.7-.4.6-.1-.2-.8-.2-.7zm-23.7 8 .8-.2q.5-.2 1.2-.8t.7-.6l2.5-1.5-2.7 1.5-2.7 1.5.2.1zm-6-15v.2l.2-.2.4-.4.2-.2q-.2 0-.5.4t-.4.3zm-1.6 3.7q-.5.4-.6.8v.2l-.2 1.3.7-.8.8-.7 1-.7.8-.6 4.9-3.7-2.3 1.3-2.8 1.7q-1 .7-2.3 1.2zm-.6 4 1.2-.8 9.1-5.2.4-.3.4-.3.4-.1q1.6-.8 2-1.5.3-.6.6-.6h.4l.3.1h.3l.5-.4.6-.3 3-1.8q1.6-1 3.7-2t3-1.9l4.4-2.5.4-.1.4-.3.4-.2.3-.3.1-.4V26l-.5.3-9.2 5.3-8 4.6-9.8 5.7-1.5.9-1.6.9q-1 .6-1.3.6h-.2l.2.8zm26.4-8.7-.6.4.6-.4-2.8 1.5-.7.4-.6.4v.7l2.3-1.7 2.3-1.6-.3.2-.2.1zm-2.4.2.4-.3-.4.3q1-.4 4.7-3l-4.7 3zm-1.4 4.5-.2.5 3-2.4-1.2.6-1.2.6-.3.1q-.2.1 0 0t-.1.2v.4zm-7.2-4 .3-.1.1-.3-.4.3v.1zm1.1-.8q.8-.1 1-.5l-.6.3-.4.2zm3.7-1.9.3-.2-.3.2 5-3-3.6 2-3.6 2.1q.4 0 1-.5t1.2-.6zm-5.8 4-.1.2.1-.1zm-1.9 1.4zm-2.5 4.4-.4.3.4-.3q-1.5 1.5-4.6 4l2.5-1.7 1.9-1.2q.7-.4.7-.6v-.2q0-.2-.2-.2t-.1-.4l-.2.3zm2-.3.6-.1q.3.1.3.4 0 .3-.3.5l1.5.8.3.2q.2.2.2 0h.6l.4-.2.4-.3q.4-.1 1.2-.9t1.4-.7q.5 0 .8-.2t.4-.6.5-.5q.4-.8.4-2v-.8q-.5.1-.5-.3 0-.3.3-.4v-2.2q-1.2 1-1.7 1.1l-.8.4q-.6.4-.9.4t-.7 0q-.7 0-1.3.4l-.5.4-.6.4-.5.4-.7.4-.6.3q-.9.7-.9 1.3l.3.9.4 1zm0 2.5-.1.1v-.1l-1.1 1.5-1.2 1.4q-.5.6-1.6 1.4t-1.4 1.2q3.7-2 7.6-4.4-.3-.3-1.1-.6t-1.2-.5zm-2.3 6.5.9-.2.7-.2.9-.4.7-.3q2.8-1.4 5.9-3.4 2.5-1.6 8.7-6l3.7-2.7.8-.8q.2-.3.2-.7v-.6q-5 3.4-8 5.1-1.5.8-2.2 1l-.4.2h-.4v.6q0 .7-.6 1-.3.2-1 .3l-.5.6-.6.6q-.4.5-1 .8t-.8.3l-.5-.1q-.6.7-1.6 1.4t-1.6 1.1-2 1.2-1.7 1l.4.2zM336 41.4l-.3.2.3-.2-3 1.9q3-1.5 3-1.9zm0-.9-.2.1-.3.3.5-.4zm-.2-4.7-2.6 1.5q-2.6 1.6-3 2l-1.3 1.1-1.4 1-.5.4-.8.7-.4.5q1.4-.6 5-3 1.4-.7 3.6-2.1l.2-.2.4-.2q.2 0 .5-.3t.3-.3 0-.2v-.9zm-.2-1-.1.2.1-.1zm-4 1.7 2.6-1.6.4-.2.4-.2q.2 0 .2-.2t.2-.2.2-.3.1-.4l-4.1 3zm4.4-5v-.2l-.2.2h.2zm-9.8 3.8v-.1.2-.1q-.1-.2.4-.6t1.3-1 1.6-1 1.6-.7.8-.4l3.4-2q.6-.3.6-.8v-.4l-.2-.6Q333 30 328 33l-2.3 1.5-.3.3.2.4.2.4v1.1q0 .8.2 1.2l.2-.1.2-.1-.2-.3q0-.3.2-.5t.7-.6.8-.6 1-.7.8-.5.8-.4l.4-.2 1.8-1.2 1.7-1.1.4-.3.6-.3q.3-.1.3-.4t.2-.4l-5 2.8-1.3.8q-1.2.8-2.3 1.3t-1.2.3zm9-13v-.1l-2 1.4-2.4 1.9 1.2-.8 1.3-.8.8-.4.8-.4.4-.3v-.5zm-.9-1.6-.3.1h.4l-.1-.1zm-3.7-3.1-.3-.1h-.2q-.2 0-.2.3t-.2.3l-.8 1q-.5.7-1 .9-.2.5-1 1.4t-1 1.4q2.9-1.8 6.8-3.7l-2-1.5zm-4.6 6.7.2-.2.3-.2-.5.4zm0 3.7q.1-.2 1.7-1.2l-1 .3h-.4v.4q0 .4-.2.5zm.8-3.4.3-.2-.3.2 2.5-1.6-1.5 1-1.6 1 .6-.4zm.6-8h.1l-.5-.1-.4-.1-1 1q-.3.5-1.4 1.5t-1.6 1.7h.6l.4-.2.4-.3.7-.6.7-.5 3.3-2.1q-.6-.3-1.4-.3zm-13-.5-.4.1-.2.4-.3.4q-.6.6-2 1.5l3.8-2.2h-.3l-.6-.2zm.6 9.1h-.1l-.3.1-.4.4-.2.3-1.2 1.3-1 1-1 1.1 1.5-.9 1.7-1q.4-.2.7-1t.3-1.3zm-9.8.2.8-.5-.8.5 4.5-2.5 1-.6.9-.5-.2-.6q0-.5.4-.8l-6.6 5zm8-2.6-.3.3.2-.3-2.4 2.6-2.4 2.4 2.5-1.4 2.5-1.5q1.4-.6 1.3-1l-.3-.5-.5-.3-.7-.3zm-1.1-2.6-.2.1h.2zm-1.1 0 .2-.2-1.1.8.9-.6 1.5-1.2 1.5-1.1-2.7 1.6-2.6 1.7-.7.4-1.2.7-1 .4q-.3 0-.3-.4l.2-.4.6-.5.4-.4 2.4-1.7 1.9-1.2-1 .6-1 .7q-.4.3-1 .4l-.8.5-1 .5-.6.7q-.3.3-.3 1v2q2.5-2.1 5.7-4.3zm1.8-4h-.1l-.2-.2-.1.4.4-.2zM305.4 27l.5-.2-.5.2 1.1 1.4L312 23l-6.5 4zm2.8 2.4q.3 0 1 .4l1.1-1.1 2.7-3-2.4 1.5q-2 1.1-3 1.9l.2.2q.2.2.4.1zm6.7-9.5.1-.2v.2q.4-.8 1.3-.8h.8l.9.1q.6 0 1-.3 2.7-1.9 5-3.2l-.8.1q-.3 0-.5-.2-.5.3-1 .3h-2.5l-1.3.1-1.4.9-1.8 1.3-1.8 1.3q.3-.3.8-.3.9 0 1.1.7zm5.4 0q.6 0 1.3.4h.2q.2 0 .3-.2t.2-.2l.2-.3.1-.2 3.1-3.3h-.3l-.2-.1h-.3l-.2.2-.4.2-.9.5-.9.6-3.2 2.1 1 .3zm3.5 1.3.7.7.6.6q1.3-2 4-5l-3 2q-2.4 1.6-2.3 1.7zm.5 6h-.2l.2.2v-.2zm-5.4 5.4v.2-.2q-.3 0-.5.2t-.4.4-.5.5l-1 .6-1 .7-1.8 1.4-1.9 1.3q-4 2.9-5.8 4.5l.1-.1.2-.1 8.6-5 8.6-5 9.3-5.3.7-.4 1-.6.7-.5q.4-.1.4-.6l-.2-1-8 4.6-.9.5-.8.4q-.2.1-.5.7t-.4.7l-1.8.9q-.2 0-.3.2t-.2.5-.2.5q-.3.2-.7.2h-.6l-.2.2q-.1.2-.4.1h-.1l-.2.1q-.7 0-1.2-.6zm-2.2.2h-.5q-.2 0-.5.3.3 0 .3.3v.1l.7-.4.7-.3-.2-.1h-.2l-.3.1zm-7 2v.2-.1l-1.3 1.1q-.3.6-.8 1l-1.7 1.5-.7.5-.9.8-.4.7 4.7-3 3.1-2.1 2.9-2h-.4l-.6.3q-.2 0-.6.6t-.5.6q-.4.4-1 .4-.4 0-.7-.3l-.4.1q-.4 0-.7-.3zm-5.3 12.7.7-.4 1.7-1.1 1.6-1 1-.8 1.6-1 1.3-.9q.8-.5 1.1-1.3l-7.7 4-1.9.8.3.8.3.9zm1.1 1.9.5.3.1-.1.2-.2.3-.2L308 48l1.4-1.2 2.8-2.3.4-.4.6-.6.2-.3q-1.8.9-5 2.9t-3.9 2.3l1 1zm4 2.3q.2 0 .6-.4t1-.9.5-.6l1-1 .9-1q1.3-1.4 1.5-1.8-.3-.2-1.7 1l-1.4.7-1 .7-3.7 2.3q1 .4 1.4.9l.9.1zm10 1.5h.2q0-.2-.2-.2l-.1.1.1.1zm7.8-3.7 2-1.7-2.2 1.2.2.5zm2.8 4.2zm4.2-1.1h.1-.1.6q.2 0 .8-.7l1.1-.9 1.2-.9q2.8-2.3 5.2-4-1.5.7-3.1 1.8t-3.6 2.5-2.9 2h.3q.3 0 .4.2zm71.3-4.5.1.3q0 .3-.5.7l-.2.4v3.2q0 .7-.5 1.2-.4.5-1.2.5h-.2l-.4.3q-.3.3-.5.2t-.3-.2-.4-.1q-.5 0-1.3-.4H399l-.4.2-.7.2h-.9q-.6 0-1.1-.2h-1.5l-.5-.2-.5.2h-.1l-.2-.1h-1.8l-1.3-.1-1.2.2h-.3q0-.3-.4-.3h-.3l-.4-.1-.6.1-.4.2-.4.2q-.3.2-1.3.2-.8 0-1.3-.3h-.3l-.3.1q0 .1-.4 0t-.3 0q-.5-.2-.8-.6t-.4-1l.1-.5V50q-.2-.7-.2-2.2 0-1 .3-1.3t1-.4h.8l.8.1q1.4 0 1.7-1v-.1q0-.5.3-1 0-.7.2-1.2l-.1-.7v-1.4l-.6.1q-.3 0-.3-.4t.4-.9q.2-.3.2-.7v-1.4l.2-1.7.2-1.6v-1.4l-.1-1.5v-1l-.3-.1q-.3-.1-.3-.5l.2-.3.3-.3v-1.3l-.4-1.1-.4-1.2q-.1-.3-.8-.9l-.3-.1-.2-.2h-1.4l-.5-.1-.6-.1h-.6l-.6.3h-.7l-.6.2-1 1.2-.8.6-.6.4-.4.3v.2l-.2.4-.6 1.8h.2q.4 0 .4.2v.3l-.5.4q-.4.3-.3.4v1.1l.1.7q0 .9-.3 2 .4-.3.8-.3h.2q.4.1.4.3 0 .3-.9 1-.5.4-.5.8v.3l.1.4h.5l-.2.6-.2.4.1 1.2v.5l-.1.2.1.2.2.2v.4l-.2.8-.2.5v.5q0 .3.2.5l.3 2v.1l.1.2q.1 0 0 .1t.1 0 0 .2.2.1l.1.2.8.3h.3l.4.1q.3.1.4 0h.4l.5.1.5.2.6-.2.1.3-.2.6-.2.4.1.5.1.6q.2.6.2 1.7 0 .8-.2 1.4l-.2.2.2.5-.2.4-.1.4q-.5.6-1 .6h-1l.2.4q0 .2-.3.4l-.4.2q-.3 0-.3-.4t.2-.7h-.3l-.2.1h-1l-.8-.1q-.7.7-1.2.7-.2-.1-.2-.3h-.7l-.5.1-.8-.1h-.7l-.3-.1q-.1-.1-.2 0-.4.3-.8.3l-.9-.1-.9-.1-.7.3-.6.3-.8.1q-.5 0-.5-.4h-.2q-.5 0-.5-.3t0-.2-.2 0-.5 0l-.2.1q-.2.1-.2 0h-.5l-.4-.1h-.7l-.4-.2-.8.2h-.6q-.3 0-.5.2h-.2q-1.2 0-1.7-.4l-.2.1h-.2l-.2-.1h-.1l-.2.1-.3.2q-.4.4-.8.4l-.4-.3.2-.5q.2-.4.5-.4t.5-.4l.2-.2q-.2-.6-.2-2.3v-1.9q0 .2-.2.2t-.4-.2-.1-.2l.1-.3.4-.2q.3-.1.3-.4v-.2q0-.6.4-1t1-.3l.7.1h1.4q.4 0 .8-.3l.4-.1h.2l.2.1q.2 0 .2-.4 0-.7.3-1.3l.1-.8v-.8l.2-1 .1-.7q-.4-1.4-.4-2.1v-.3q0-.3.1-.2v-5.4q0-.6.2-1v-1l-.1-1q-.2-.8-.2-2.8v-1.8l-.1-.4-.2-.3q-.3 0-.4-.2t-.5-.3l-3.1-.2q-.7 0-1-1t-.3-2l.1-1-.8.3q-.3 0-.3-.4 0-.3.6-.8t.6-.7l-.2-1q0-1.4 1-1.4h.3l.8-.2q.5 0 .8.4.8-.4 1.4-.4t.2.1l.5.2q.4-.4.8-.4l1 .2h.4l.4.2.3-.1h.3l.2-.1q.2-.1.1 0h1.2l1-.1h.2l.4-.1h.3l.3.2h.2l.3-.2h.3q.5 0 1.8.4h1.4l.5-.3q.4-.3.6-.2t.3 0q.6-.1.9.2t.3.8 0 1v2.4l1.1-1.5.8-.5.7-.5q0-.2.3-.4t.4-.5q.2-.5.7-.8.3-.3.6-.3.5 0 1 .5t.5 1.1l-.1.6q-.1.3-.5.5t-.5.5-.6.4-.7.4-.7.3-.5.2q-.6.3-.6.6v.2l-.2.5-.8.6-.6.5-.4.3-.3.1q-.3.6-.6.6l-.3.1q-.6 0-.7-.4l-2.7 2.1-3.2 2.6q2.8-2 6.4-4t6.2-3.5 6.9-3.5h-2.2l-.4.2-.3.1-.4-.1q-.5-.2-.5-.6V16q1-1.2 2-1.2h2.2q.7 0 1.2.2h.8l1 .1q.6.1.7.3l1.4.3.6.4q.4.3.7.3l.7.2.8.5.6.4q.6.3 1 1l.6.8.5.7.5.7.5.7q.5.8.5 1.9v1q.8-.6 1-.6.3 0 .4.4v.2q0 .4-.3.7l-.2.3-.5.5q-.3.2-.2.4.2.3.2.7l-.2.8.1 2.1q.2.5.2 2 0 1.6-.2 2l.2 1.4v.3l.1 1.3v.9l.3.1h.2q.4.2.4.6 0 .3-.4.3h-.4v.3l-.1.4-.1.5v.4l.2.3v.4l-.3.3-.2.1v2.2l.2.6.2.9.4.5.6.2q.4.2 1.6.3l1 .1 1.2.1.5.1q.2.1.3.4t0 .4.2.6 0 .4l.5-.3q.2 0 .3.2zm-4.4 4.3q.3-.2.5-.6l-1 .6h.5zm2-1.6v-.1l-.5.6-.1.4-.2.4-.2.3.4-.1.4-.2.1-.3.1-1zm-2.4-2.8q-.4 0-1 .7l-1.2 1.4q-1 1.1-1.7 2.2 1.2 0 1.8-.4l3.6-2.2.3-.1.2-.1.1-.2.2-.1q-.1 0 0-.2t0-.3v-.3l-1.3-.3h-.3l-.7-.1zm-10.3 4.4.3-.3-.3.3 1.6-.9 1.7-1 1.4-1 1.5-1.2 1.5-1q-.6-.4-.7-1.4l-3.8 3.1-3.8 3.1.3.2q.3.2.3 0zm8-4.3-.2.2q-.2.2-.1 0l1.2-.6q-.3 0-.9.4zm-1.6-5.4-1.6 1.1-1.9 1.3-3.8 2.6q-3.4 2.2-4.5 3.4l-1 1.4h.1l1-.3 1.2-.3.5-.1.7-.4.4-.3q2-1.2 5-3.3l1.4-.8q.9-.5 1.3-.9l.3-.2.6-.3q.3-.1.4-.4t.3-.3q-.5-.7-.5-1.7v-.3l.1-.2zm-9.6-3.6 1.2-.7-1.2.7 2.3-1.4 2.7-1.6 2.4-1.4 1.2-.7 1-.6q.2 0 .2-.8V32l-6.2 4.1-1.2.8L388 38q-.7.6-.7 1zm9.4-4.3.4-.5-1 .7-1.3.8.5-.3.8-.5.6-.2zm-9.4 2.8v.2l.8-.6.7-.6-.4.3-.6.3q-.3 0-.4-.2v.6zm1.4-1.7 2.4-1.4 2.5-1.5 1.4-.8 1.3-.8h.2l.2-.1.1-.1q.2-.1.2-.4v-.7q-1.2 1.1-4.1 2.9t-4.2 2.9zm8.2-8.1-.1.2.1-.2-1.7 1.4.6-.3.9-.5q.3-.2.2-.6zm0 1.3-.5.2.6-.2q-1.7.7-6.1 3.7l-1.5 1-1.6.9q-.4.2-.4 1v.6q.4-.7 1-1.3t1.9-1.3l1.3-.8 3.6-2.4 1.1-.7q.7-.5.7-.7zm-9.4 13.5.4-.4-.4.4 3.3-3q-2 1.2-2.8 1.4-.5 0-.5.6v1zm.1 1.3.8-.4q.8-.4 1.1-.8l1.1-.7 1.1-.8q2.8-1.9 4-2.4l.5-.2.8-.4.3-.3v-1.2l-.1-1.3q-3 2.2-6.2 5-.2 0-1.2.9t-1.6 1.4-.6 1.2zm10.9-18.7.1-.1.2-.2h-.2q-.2 0-.1.1t0 .2zm-10 5 1-.6q-.3 0-1 .6 1.8-.8 5.4-3l.7-.5 1-.5q.4-.1.8-.6t.3-.5l-.1-1.2-2 1.3-2.3 1.6-1.8 1.5-2 1.9zm8-8-.8-1q-1.5 1.5-6.4 5.8 5-3.1 5.7-3.4l.4-.2.6-.3h.6q0-.6-.2-1zM394 19l-.1-.1v.4q0 .6-1 1.4l1.8-.9-.7-.8zm-2.4-1.3-.5-.2q-.3-.2-.4-.1l-.4.1-.3.2v.4l-.1.2-.8 1.4-1.2 1.5-1 1.3 1.8-1 1.7-1 2-1.3.4-.2.4-.2.4-.1-.8-.5q-.8-.5-1.2-.5zm-5.1 7 .2-.3-.2.2 2.9-2.1q2.2-1.5 3-2.4l-3.3 2-1.3.7-1.8 1 .5.8zM373 28.1h.1l.4-.4.2-.4.2-.5.2-.5q-4.3 2.4-6.6 3.9l-1.7 1-1.7 1-.7.7q-.2.3-.1 1l5.2-3.8 1.1-.8 1.6-1 1.4-.3.4.1zm-.5-8.8-1 .9q1-.8 1-1l-7.3 6.4 2.6-1.5 2.1-1.2 2.1-1.2.3-.6.1-1v-.8zm-4.6 3-.6.5.6-.6.8-.6q-3.6 2.2-5 2.8-.6.2-.6.4l.1.9v.7l1.2-1.1 1-1 1.3-1 1.2-1zm-4.4 9h.1v.4l.8-.5.9-.6-1 .2-.6-.2-.2.3v.5zm-.2 7 1-.8-1 .8 7.4-5.4-6.1 3.6-.5.3q-.4.3-.6.2-.2.1-.2.5v.8zm0-2.4v-.1l4.2-2.9q3.2-2 4.7-3.3-3.4 2.1-7 4l-1.6 1q-.3.2-.3.7v.6zm5.8-5.3.2-.2h.1l.1-.1-.4.3.7-.4.6-.4q-.2 0-.6.4t-.7.4zM387.4 17l-.6.2-.8.5-.5.4-5 3.7q1.4-.9 8.6-4.7l-.7-.1h-1zm-4.2 1.9-3 1.6.5-.2 1.3-.7 1.2-.7-3.1 1.6-3.5 1.8-3 1.7-3.4 2q-1.3.7-2.9 1.9t-3 2.2l1.4-.2 1.5-.6 1.3-.6 1.4-.8 1.1-.8 3.6-2.2.7-.5.7-.6q.2-.7.7-.7l.3-.1h.3l.8-.5 2-1.3 1.5-1.2 1.6-1.1zm-14.5 6v-.1l-.6.5.6-.4 1.4-1.2L368 25l-2.3 1.3-1 .7q-.7.5-1.1.6-.2.1-.2.6v1.3l1.3-1.3L366 27l1.5-1.2 1.3-1zm-6.6-7.3-.6.2q-.5 0-.6.3l-.8 1.4-1.5 2.3L362 20l3.9-2.1-1.4.1h-.5l-1-.2-1-.2zm-4.2.3-.2-.1v.2l.2-.1zm-.2 4 .2-.2.3-.5.4-.6q.3-.3.4-.8t.4-.7.3-.5.2-.3l-1.8 1-.2.2-.1.2v.3l-.1.4v1.4zm2.7.4.3-.2-.3.2.6.2.7.3q.6 0 1 .5h.2l.9-.4q1.4-.8 4-2.8t3-2l-.4-.1q-.3 0-.5-.2t-.3 0q-.8 0-1-.2h-.5q-.3 0-.4.2t-.5.3-.3.2l-6.5 4zm3.2 18.4q0-.2 1-1t2.2-1.6l1.2-1 2.2-1.7 2.2-1.7-3.3 2.2-3.3 2.3q-1.2 1-2 1.3-.3 0-.3.3v.3l.1.4v.2zm9.6-8.6-.4.2.4-.2-2.2 1.7.8-.5 1-.7.4-.5zm-.4 4.2-1 .6 1-.6-5.5 3.3-1.7 1-1.5 1-.4.4-.2.6 2.5-1.5 3-2q.5-.2 2.5-1.7l.5-.3.6-.4.2-.4zm.6 8-1.5.7-3.2 1.8-1.8 1-1.7 1-1.9 1-1.7 1.1-1.7 1.2 1.3.2.8-.2 1.3-.6 1.4-.9 1.2-.7 5.4-3.5.8-.6 1-.6.3-.4v-.6zm-.3-1h.2-.1zm0-4-.3.2.3-.1-1.1.4-1 .5-1 .6-.9.6-4.2 2.7-.8.6-.8.6-.4.4v.6q4.2-2.8 7.6-4.7l2-1q.6-.4.6-1.3zm-14 8.8v.1h.1l-.8.1q-.5.1-.9.4V50l2-1.5-.4-.4zm-1.5 3.7.1.1.8-.3 1-.7 2.4-1.4 2.4-1.3 2.4-1.4 2-1.3 2.6-1.7.8-.6.7-.6q.2-.1.2-.3v-.4q0-.3-.2-.5v-.1q-2.4 1-7.4 4.4l-5.2 3.3-2.2 1.5q-.5.3-.5.7v.3l.1.3zm6 .3.5-.3-.4.3h1.6l.5.2.3-.2.4-.4.5-.4.4-.5 3.3-3.2-7 4.5zm14.4-2-.1-.2-2 2q.4 0 1-.3t.8-.3l.2-.6q.2-.4 0-.6zm-1.3 0-1.8 1-1.9 1h.9q.9 0 1.2-.3l1.6-1.8zm-1.6-2.5q-1.2-.2-1.5-1.8l-3.3 3.2-3.3 3.2q2.1-1.4 4-2.4.2 0 1.2-.7t2-1 .9-.5zm-3.7-8.6q1.7-.8 1.7-1l-1 .5q-.6.3-.7.5zm-3.1-.8.8-.6-.9.5L372 36q.8-.4.8-.7v-1l-5.7 4.6.6-.4.5-.3zm-2.7-3 1-.6-1 .6 4.5-2.7.7-.3.9-.5.7-.5.6-.6q.2-.3 0-.7l-2 1.7q-1 .8-3 2t-2.4 1.6zm19.6-11.9.3.3v-.1l.2-.5.4-.6.3-.4 2.4-3.2-5.7 3.3q1.2.5 2 1.2zm2.2 4.3v.2q5.8-5.2 7.9-7.3-.3-.3-2.3 1t-2.9 2l-1 .6-1.5 1-.8.8.2.5.3.7.1.5zm.4 1.3.4-.3-.4.3q-.5.2-.5 1l.1.7v.7l.1.9.1 1.5q4.4-3 5.6-4 .2 0 .8-.5t1-.7 1-.8.8-.8.1-.8q-4.5 2.9-7 4.1-1.4.9-2 .9-.4-.1-.4-.4 0-.3.5-1l.8-.9q.4-.5 1-.9t1-.7 1-.8 1-.7l-5 3.2zm.6 10.3-.3.2-.5.3q-.2 0-.2.2l1-.7zm-2.6 8.4-.1.2.2-.2v-.1h-.1q-1 1-1.8 1-.5 0-.8-.2-.5 1-.5 1.9v.4q1.3-.4 2.7-1.2t2.3-1.4 2.5-1.8 2.3-1.7l2.2-1.4 2.1-1.4V41l.1-.8.2-.7-4.3 2.7-1.4 1-1.4.8-.6.5-1.2.8-.8.4-.2-.2q-.2.2-.2.7t-.2.6q-.2.4-1 .8zm-2.7 5 1-1.1.8-1-1.8.8-.3.1-.1.4v.5l.1.1.3.1zm5-.4h.4l.4-.1q.5-.5.8-.6.7-.8 2.4-2.1l-1.9 1.2-2.6 1.5.5.1zm7.3.2h-.1l.4.1.3-.1q0-.2.3-.5t.3-.4l1-1.3 1-1.2-2.9 1.6-2.8 1.6h1.3q.9 0 1.2.2z"
              fill="#de5823"/>
        <path d="M51.4 27.9v.1q0 .2-.5.6-.3.2-.3.4v.5q0 1-.4 1.6v.9l-.2.3v.8q0 .7-.3 2l-.2.7-.2.8q0 .3-.4.5-.4.8-.8 1l-.2 1-.2.6-.3.6-.2.4-.3.4q0 .2-.3.5t-.3.4q-.2.5-.8 1l-.3.5-.5.6-1 .4q-.2.1-.2.3v.1l.1.2v.3l-.7.6q-.5.3-.6.6l-.5.8-.5.7q-1.2 1.7-2.5 1.7l-.6-.1q-.8-.2-1.5-1l-.4.3-.4.3q-.3.8-1 .8-.3 0-.6-.3l-.3-.2h-.2l-.2.3q-.1.3-.3.2-.4.4-.7.4h-.4l-.7.1q-.4 0-.6-.3h-.5q-.3 0-.2.1h-1.3q-.4-.1-1.2.1t-1.1.2h-.4l-.4-.1h-.5l-.5.1-.6-.1-.5.1h-1.1l-.5-.1-.5-.1-.5-.2h-1.8l-.7.1h-2.1l-.3-.1-.6.2h-.2q-.2 0-.2-.2-.7.4-1 .4h-.6l-.5-.1-.4.1h-.3l-.4-.1h-.8l-.3-.2h-1l-.7-.1-1 .2q-.7 0-1.2-.2h-.6l-.4-.1h-.4q-.3.4-.7.4h-.3l-.1-.1h-.2q-.2 0-.3.2t-.2 0h-.4q-.3 0-.4-.2h-.8q-.7 0-1-.3Q1 50 1 49l.2-1.7-.1-1.5v-.3l-.1-.9q0-1.3.8-1.3h.5q.5 0 .7.2h.2l.8-.3h1.4l1-.2.4.1q.4 0 .6-.3t.3-.9.2-.6h-.6q-.3 0-.3-.2 0-.4.8-1v-.7l-.1-.1v-.6l-.1-.3q-.3 0-.3-.2l.3-.4.3-.3q.2-.7.2-1.6L8 34.3l-.1-1.7v-1h-.3q-.3 0-.3-.3v-.2l.4-.3q.4-.2.2-.2l-.2-1.3v-.1q-.2-.5-.2-1.2l.1-.7v-1.4l.1-.7v-4.4l-.1-.3q-.1-.3 0-.4l.1-1.4v-3.4l-.2-.7-.2-.6-.1-.3-.1-.3h-.4q-.7 0-1-.2h-.6q-.4 0-.5-.2l-.7-.1H1.4q-.4 0-.4-.5-.2 0-.2-1L1 8.7.3 9Q0 9 0 8.8t.3-.5l.2-.2.3-.4.2-.3V6.3q.2-.5 1-.5h.5q.4 0 .7.2.2-.2.5-.2L4 6h3.3l.1.1q.1.1.2 0h.3q.3 0 .3-.2h1.2l1.3-.2h.5l.5-.2h.2l.6.1.5.1.4.2h2.7q.8 0 1.3.2h.6q.3-.3 1-.3l.8.1 1.8.1h.7l.7-.1h.3l1-.3q.2 0 .2.3l.5-.1q.5 0 .7.2h1q.3-.4 1-.4h.2v.1l1 .2q.5 0 .9.2h4.9q.3 0 .4.2l1.7.6q.8 0 2 .6l.7.2.5.2h.3l.2-.1h.3l.1.3v.2l.2.2.4.2.4.2q.3 0 1 .5t.7.6l.3.3.3.5q.1.3.3.3.1.2.4.2l.4-.2q.4-.2.6-.1.4 0 .4.2l-.2.4-.3.3-.2.4.2.4.5.8.6.9.6.8h.4q.3 0 .2.2 0 .4-.2.6l.4.5.4.3.5.4-.2.2.3.1-.1.5-.2.4q.5.8.5 1.5.4.7.5 2.4l.4 1.5q.2.8 0 1.3t.1 1.6 0 1.3l.6-.1h.3zM41 44.7l.4-.3-.4.3 1.2-.8 1.2-.9-2.5 1.7h.1zm4.1-4.3v-.1q-1.1 1-9.4 7h.2l.5-.1.7-.5.4-.4 1-.6 1-.7 1.4-1 1.3-1 2-1 .1-.3.2-.3.1-.4.3-.3q.2-.1.2-.3zm-10.2 7.8v-.3l-.2.2h.2zm12-10.9-.2.2.3-.2q-.1.3-1.8 1.2L43 39.9l4-2.5zm-2.7 1 .4-.2-1.4 1 1-.7.8-.6.9-.6.7-.4.7-.5.3-.2.3-.3q.3-.3.5-1t.1-1.4V33q-4.7 2.9-10.3 6l-1 .6-.9.5-.2.3-.3.4q-.2.2-.8.3l-.5.5-.4.5-.3.5q-.2.2-.8.3l-.1.3-.1.3q-.5.6-.8.7h-1l-.4.1h-.9l-.5.4q-.5.3-.4.4l-.3.5-.3.4-.9 1.5-.7 1.1 1.8-.7 1.6-.8 1.7-1 1.5-1L44 38.4zM21 48.6l1.7-1 2-1.4q1-.8 1.7-1.1-.2-.2-.7-.2h-1.8l-.4-.1h-.6q-.6 0-.7.3l-.6 1.6-.6 1.9zm-9.9-.8.7-.4-.7.5q1.6-1 5.4-3.8l.3-.3.5-.4q.2 0 .5-.3t.4 0l.1-.5v-.3q-3 2.5-9.2 6.4l.9-.2 1.1-.7zm-1.9-9v.2q2.7-2.3 7.4-5.9L12 35.8l-.6.4-.8.5-.7.5q-.4 0-.4.4v.6l-.2.6zm.2-5.6.5-.5-.5.5q1.4-1.3 3.8-3.1l3.4-2.5.7-.4 1-.7.3-.6-2 1.2-2.4 1.7-2 1.4-.6.5q-.6.5-1 .6t-1 .3h-.2V33zm-.2-3.6.4-.3-.4.3 3.4-2.5-1 .6-1 .6-.4.2-.5.2-.4.3q-.3.3-.1.4t0 .2zm6.9-21.9h-.2.2q-.2 0-1 .6l.5-.3.5-.3zm23 1.5-1.9 1-1.6 1-1.1.7-1.3.7-.3.2-.5.3-.3.1q.3.3.5.3l.5-.2 1-.6.8-.6 2.8-1.9.4-.3.7-.4q.3-.1.3-.3zm3.4 1.8-.7.3.7-.3-7.3 4.4.5.5q.4.3.5.7 0-.2.3-.4t.6-.4.4-.3l2.4-2 2.6-2.5zm1.7 2-.4.3.3-.2.1-.1-5.7 3.6-.5.3-.6.5q-.1.2-.6 0 .6 1.2.8 2 3.3-2.5 5.2-4.3l.5-.4.5-.5.4-.5.2-.3-.2-.4zm-5.8 7.8.2-.4.6-.5.8-.4q.4 0 .7-.4t.5-.2l1.2-.8 1.3-.8-4.7 2.6-.4.2H38q-.2 0 0 .3t0 .2l.2.6.3.8.2.6 2.3-1.8 2.7-2Q40.3 21 39.1 21q-.5 0-.7-.4zm10.7 5L42.4 31l5.6-3.5.3-.2.5-.3.3-.2v-1.2zM38.6 33l.7-.6-.7.6 5.9-4.6q-3.2 2.2-4.8 2.8l-1 .2-.1 1v.6zm-9.4 10 .7-.3 1-.7.5-.2.5-.3.5-.8 1.4-1.2 1.1-.9.5-.5.3-.5.2-.7.3-.6q.1-1 .3-1.3l.2-.7.2-.6v-.1l.2-1.2V32l.1-.5V31l.2-1.8-.2-2.3.3-2h-.3q-.5 0-.5-.3l.2-.3h.2q.2 0 .2-.2t0-.1v-1.1l-.3-1-.3-1-.7.4h-.2q-.3 0-.3-.2t.2-.3l.2-.1.2-.2.2-.1q.2-.1 0-.2v-.3l-.3-.5-.2-.6-.1-.6q-.4-.2-.8-1 0-.2-.3-.4t-.4-.4L34 16h-.2l-.2.1q-.3 0-.3-.2l.2-.4q-.9-.8-2.3-1.4-.3 0-1-.5t-1.4-.4l-.5-.1-.3-.1-.4.1-.7.2-.3-.1-.1-.2-.2-.2h-1l-.4.1-.4.2q-.2-.2-.7-.2l-.6.2-1.4-.2q-.6 0-1.1.3l-.3.1q-.2.1-.2 0t-.1.2-.2.3l.2.8v1.1q.3 0 .3.3l-.1.3-.2.3v3.2h.4q.5 0 .5.2l-.2.3q0 .2-.4.4t-.3.5l-.2.7.2.3q.2.2.1.3l-.2.2q-.2.1-.1.2v.3l.1 1 .1.1.4.2.2.1v.5l-.4.3q-.4.2-.2.2v.4l-.2 1.7q-.2 1.1-.1 1.7v.3q.2.6.2 1.5v.4l-.3 1.5v.4h.2q.5 0 .5.4t-.2.6l-.1.4v.4l.1.3v2.5l-.1.5v1.5q0 .4-.2.6v2.5h1q.6-.2 1.3-.2l1.3.1h1.4l.6.1H27l1.3-.2h.9q.1 0 0 0zm-20-3.2.3-.2-.3.2 3.3-2.2 3.3-2.1 2.2-1.3q.3-.2.3-.9v-.8l-2.7 2-2.6 2.1-2.3 1.8Q9 39.6 9.2 39.8zM9 18.5l.3-.1H9l1.8-1h-.7q-.5 0-.8.3T9 18l.1.4zm9.3-4.8-1 .5 1-.5-5.4 3.2-1.6 1-1.4.8-.3.1-.3.2-.2.1q-.2.1 0 .3v.4l-.1.4q4.3-3.3 6.5-4.5l1-.4 1.5-.7q.5-.3.3-1zm8.7-5 1.1-.5 1.2-.7-.7.2-1 .6-.6.5zM9 22q.9-.8 2.7-2t2.6-1.7l1.1-.7q1-.5 1.4-1t.8-.9l-.6.3-1 .7-.6.5-3.3 2-2.7 1.6-.2.1-.2.2v.9zm0 1.8.1.2q3.5-2.4 6.9-5-2.6 1.7-5.3 3.2l-1.3.7q-.3.1-.3.3v.6zm1.8-2.4 1-.5-1 .5 5.9-3.5.7-.3q.6-.3.8-.6t.3-.7v-.6l-.1-.6-.1.3-.1.6-1 1.1-2 1.4L13 20l-2 1.3zm7.6-3.4-.3.2.3-.2-1.8 1.3.6-.3.9-.5q.3-.2.3-.5zm0 1.6L12.8 24l4.4-2.6.7-.4.7-.4V20l-.1-.6zm-.2 3.5-1.3.8-1.3.7q.4-.1 1.5-.8l.3-.2.6-.3.2-.2zM16 25.4l.8-.4-.8.4 2-1q.4 0 .4-.3v-.3l-1.3 1-1.1.7zm.7.4-.8.4-1.1.7 1-.6.9-.5zm31.9 5.9-.5.3-.9.5-.6.3-1.8 1-1.2.7-1.7 1-2 1.3-1.7 1 3.2-1.8 3.3-2 1.2-.7 1.3-.7.3-.1.5-.3.3-.2.3-.3zm-7 2.8q0-.1-.1 0t-.3.1l-.1.1.4-.2.8-.5.7-.5-5 3.3 1.8-1.2 1.7-1.1zm-2.8 1h-.2l-.5.3-.3.3q.2 0 .5-.3t.6-.4zm-.4-1.4.6-.5-.3.1h-.2l-.2.4zm.4-4v.2q5.5-4.5 8-7L44.4 25l-2.6 1.4-1.3.8-1.3.8q-.3.1-.3.7V30zm0-3.8v-.1l.2-.2.5-.4.3-.2 1.5-1.1-2.3 1.3-.2.1v.6zm.1-1.7.1-.1v.1l1-1 1-.7-.8.4-.9.5q-.3.2-.4.6v.2zm-4.4-10 .6-.6-.6.6 4.5-4-2.6 1.4-3 1.7.5.4.6.5zM31.9 13v-.2q0-.3.3-.8t.7-1 .9-.8.5-.6l-2.1 1.2L30 12q.2.2 1 .4t.9.5zM28 11.4l.4-.2-.4.2q2.7-2 3.7-3L27 11.2q.6 0 1.1.2zm-5.3-2-.6.4.6-.4.8-.6-4.7 2.6-4.2 2.4Q12 15.3 10.2 17l.8-.2.8-.3.8-.4.8-.4 4.1-2.6.4-.3.5-.4v-.1q0-.3.3-.4.4-.4.8-.5.5-.1 1-.5t1.2-.7 1-.7zM9.5 16h.1-.1l1-.9 1.1-1 1-.7 1.2-.9q.7-.6 1.1-.7t1.2-.9 1.1-.7l-5.2 3-2.6 1.5q-.4.2-.4.8l.2 1q0-.2.3-.5zM9 14l.1-.2-.1.1 1.2-1.1 1-1 1.3-1q1-.7 1.2-1l-1.5 1Q11 11.7 10 12t-1.7.6l.2.6.3.8.2-.2zm-6.7-3.5 1.8-3-.6.3-.8.5-.4.5V9l.1.4-.1 1zm6.8 15.4 2-1.5 2.4-1.8 4.3-3.4-3.3 2.3-3 2.1q-1.5 1-1.9 1l-.5.4v1zm9.2-4.5-1 .5 1-.5-5.4 3.2-1.7 1-1.3.9-.3.1q-.3.1-.2.2t-.2.1-.1.2-.1.1 0 .3v.1l5.3-3.3 1.2-.8q.9-.5 1.3-.9l.5-.3.7-.5.3-.4zM14 28l-.9.6 1-.6q-2.6 1.6-3.7 2.5L14 28zm-2.3 4-.3.1.7-.5-.4.3-2 1.8 5.8-3.3 1.3-.8L18 29l.4-.5q.2-.4.1-1t.1-.7l-3 2.2-4 3zm6.7-2.4L15 32.4l-3.4 2.9q4.1-2.6 6-3.5l.3-.2q.2-.2.2 0t.3-.2 0-.2v-1.5zm-5.5 8.8h-.3l.6-.2 1-.6.6-.4-1.9 1.2-2.7 1.6-.4.2-.3.2v.6l2.8-1.8 2.6-1.6L16 37l1.4-.9 1-.8v-.5q-.2 0-.6.5t-.5.5l-1.4 1-1.7 1-1.5.8zm5.7-2 .1-.3v-.3l-.4.3-.4.3.4-.2.3.2zM15 46l-.3.3.7-.6-.4.3-2.7 2.3 2-1.1 2-1.2 1-.6 1-.5.1-.3v-1L15 45.9zm4.7-.9-.4.4.2-.1.2-.2-1.4 1-1.5 1.2 4.4-2.5-.2-.1-.5.2-.6.2h-.2zM49 30l-.5.3-1 .6-.7.4-1.5.8-1 .7q2.7-1.6 3.8-2l.6-.1q.3-.1.3-.3V30zm-10.8 5.2 3-1.8 3.1-1.7 1.8-1.1 2-1.2.3-.1.2-.1.2-.1.2-.1.1-.2.1-.1v-.9L42.3 32l-1.4 1-1.4 1-.4.2-.7.5-.3.4zm10.9-11q-.3-.5-.4-2.3l-.3-.9-.1-.7q-2.8 1.7-5.9 4-2 1.4-2.7 2.2-.9.5-.9.8L43 25l4.2-2.4.4-.3q.4-.3.5-.2.2 0 .3.2.3.5-1.4 1.9-2.3 2.2-7.9 6.7 1.6-.5 4.4-2.3l4-2.7 1.3-1 .2-.2v-.4zM47.7 19l-1.4 1-3.3 2.4-2 1.4 5-3 .9-.4.9-.6q.2-.1.2-.3v-.3l-.1-.3zm-4 .8.5-.4-.8.6.3-.2 2.7-2 .3-.1.3-.2.1-.2q0-.2-.2-.3-2 1.7-6.4 5l3.2-2.2zm2.5-4-.3.3q0 .2-.2.3t-.3.3-.2.2q-1.3 1-5.1 3.3 1.2-.5 3.5-2l1.2-1 1.4-.9.1-.2-.1-.3zm-1.3-2q0 .2-.9 1t-1 1l-3.1 2.6 1.5-1 1.6-.8.7-.5 1-.6.9-.2h.3l-.5-.7-.5-.7zm-1.3-1.6-.3-.4q-.2-.3-.4-.3-1 1.2-4.2 3.8l1.5-.9 2.3-1.4 1.1-.8zm-2-1.8q-.2 0-.5-.3t-.4-.2l-.3.2-1.3 1.2L36 14l2.5-1.5 3.4-2-.4-.2zM36 8.2l-.6.8-.8 1-.8 1-.7.8 5.1-3-1-.3-1.2-.3zm-1.2-.3h-.5q-1 0-1.2-.2l-.3.5-.4.4-.5.4-.4.4-2.9 2.3.5-.1.7-.4.7-.5.4-.3 2.3-1.7.3-.2.8-.4.6-.2q.2 0 .2.2v.2l.2-.1.3-.2-.8-.2zm-10-.5-.7.4.8-.4-1.5.2h-1.3l-4.8 3.2-6.5 4.9q2-1.5 4.7-3.1T20 10t5-2.6zm-6.2.2h-.5q-.8 0-1 .2l-1.1 1-1.1.8-4.2 3.6 9.7-5.6-.5-.1h-.6l-.5.1h-.2zM5.8 7.5l-.3.1h-.6l-.3.5-.3.5-.6 1-.6.8L8 7.6H6.7q-.2 0-.2-.2h-.7zm3.9 22.8h-.1q-.2 0-.2.3l.3-.3zM9.5 36v.3l6.2-5.1-4 2.2-1 .6-1 .6q-.3.1-.3.5v1zM7 44.8v.1-.1q0 .3-.3.5t-.3.2l-.7.8-1.7 2q7.2-5 11.2-7.1l2.8-1.4q.3-.1.4-.5t.1-1.1 0-.8q-5.1 3.3-7.8 4.8l-2 1q0 1-.5 1.4l-.7.1-.5.1zM2.6 49q.2 0 .6-.4t.7-1 .5-.7L6 45h-.4q-.4 0-.8.5t-.8.6-.8.5-.4.3q-.4.2-.4 1.3v.7h.3zm1-3.7h-.2.2-.8q-.5 0-.5.3v.4l1.3-.7zm2.9 3.5v-.1h1.6L9 48l.5-.4 2-1.3q1.3-1 2.1-1.4l1.8-1.3 2.1-1.6 1-.8v-1q-2 .6-5 2.6-4 2.3-9 5.9l.6-.1.4-.2h.8l.4.2zm4.4 0h.2l.2-.3q0-.3.1-.2l-.5.3-.4.3h.4zm2.2.1h.7l.3-.1.4-.4q.4-.4.6-.4l1-1 1.3-1-2.6 1.6-2.7 1.5h.5l.4-.1zm6.8-.3q.4 0 .6-.6t.5-1.5.3-1q-3.7 2-5.9 3.4h.1l.4-.1.4-.2h1.3l.3.1.2.1h.3l.3-.1h.5l.5-.1h.2zm4.7.4h.7l.3-.1.2-.1.2-.4q1.1-1.5 2.1-3.4h-.8v.1l-1 .7-1 .6-1 .7-2.8 1.8.6.2.5-.1.5-.1h.7q.5 0 .8.2zm6-.3h1l.7-.1q.5 0 1.5-.7l1.4-1 1.6-1.2 1.5-1 7.4-5.7-3.7 2-3.6 2.2-9.6 5.4h1l.7-.1h.2zm8 .2h.3-.2q.5 0 1.5-1l-.8.6-.7.4zM93.2 34H93q.2.2-.6.8t-1.4.5q-.3 0-.5-.2-.5.5-1.5.5h-.5l-.4.1h-.2q-.2 0 0 0l-.6-.2-.5.1h-.2l-.3-.2-.2.1-1.2-.2h-.5l-.4.1h-.2l-1.2-.2H82l-.9.2h-1l-.5-.2q-.4 0-1.1.5t-1.3.5h-.1q-.7 0-.7-.6v-.2h-1.9l-.6.1h-.2l-.5.2-.9-.2-.8-.2H71q-.6.6-.8.6v.3l.1.3.2.6q.4.5.5 1.4l.1.2.2.4v.7l.2.4 1.2 1.2 1.2 1.2.8.5q.7.5 1 .3h2.9l.2.1h.1l.2-.2.3-.2h.6q.2 0 .3.2.2 0 .5-.4 1-1.2 1.5-1.5.2 0 .3-.2t.2-.2.2-.2.2-.4q0-.4.6-.9l.2-.2V39l.3-.6.2-.6q.1-.2.4-.3t.7-.1h.5q.4 0 .5.2h1.7q.5 0 .5-.2h.3l.2.2h.2l.4-.1.3.1.7-.1q1.1 0 1.1 1l-.1 1-.2 1h.1q.5 0 .5.3l-.2.2-.5.4q-.5.3-.7 1v.5l-.2.8q-.2.3 0 .3l-.6.5q-.4.3-.4.5-.1.2-.7.5-.3.1-.3.4v.6q0 1.2-1.7 1.5l-.5.2-.6.1q-.3.1-.3.3l-1.1 1q-1 .8-1.8.8l-.7-.2h-.4q-.3 0-.4.2l-.3-.1-.4.2-.4.1-.3-.1q-.2.2-.6.2h-.5l-.4.1H78l-.7.1-1.3-.2h-2.3q-.8 0-1.2-.2l-.3-.1-.5-.2-.3-.1-.4-.1-.8.5-.6.3-.2-.1v-.5q0-.2.3-.2t.2-.2q-1.2 0-1.9-.5l-.3.2-.4.2H67v-.6q-.3 0-.3-.4v-.3l-.2-.2-.6-.4q-.2 0-.6-.4t-.6-.6q-.7-.4-1-1h-.2l-.5.2q-.3.2-.4.1-.2 0-.2-.4v-.2l.2-.3.2-.4v-.2l-.2-.1q-.2-.1-.1-.2l-.5-.6-.5-.5-.4-.5h-.3q-.3 0-.4.2-.5 0-.5-.4 0-.6.5-1.2h-.1q-1 0-1-.5v-.1q.1-.4.8-.7-.2-.5-.3-1.6-.4-1-.4-1.4v-.2q0-.2 0 0t-.1-.1-.3 0q-.3-.2-.3-.5V36q.5-.4.5-1.3v-4.2q.2-.3.3-1t.2-.8l.6-2 .5-2q0-.2.5-.5 0-.5.4-.7.2 0 .3-.4t.3-.5q1.2-1.5 2.1-2l.8-.6 1-.6.8-.6q.4-.4 1-.4l.2-.2q.2-.2.4 0h.3l.4-.2q.3 0 .4.3l.1.4q0 .3-.2.5t-.6.7-.5.4l2.6-1.6h-.7q-.3 0-.3-.4 0-.3.2-.5l.6-.2q.4 0 .6-.2.2-.1.3-.4t.3-.3l.2-.2.4.2.3.2.6-.4.6-.1h1.3l1.5.3h2l.8-.1.6.1.4.3q.3.3.5.2t.5 0q.4 0 .8.4t.6.3l.9.2q.6.2.6.4l.5.3q.4.3.5.6t.5.1h.1q.4 0 .4.3l-.1.2.2.2q.5.2 1 .8t1 1q.6.4 1 .9t.2 0 .2 0h.2v.4l-.2.1-.2.1.4.2q.4.1.4.4l-.1.4.2-.1.2-.1h.1q.2 0 .5.6v.8q0 .3-.2.5v.2q.4.6.4 1.3l.2.5q.2.5.1.6V31q0 .3.3.4.2 0 .2.4l-.2 1-.2 1v.2l.5-.1h.3zm-4.6-.4 1-.6 1-.6q.4-.2.4-.8v-.8l-2.4 2.8zm-7.8 0 .3-.2-.3.2 3.8-2.4q-1.8 1.2-4.3 2.5h.2l.2-.1zm-2-.1.8-.5-.2.1-.2.1-.2.2h-.1l3.6-1.9 3.7-2 3-2.2.5-.4.5-.3-.3-.4q0-.2-.2-.2l-.5.3-.8.4-.9.5-1.8 1.1-1.8 1.1q-4.2 2.8-6.6 4.1l.4.1.5-.1q.3-.1.4 0h.2zm-14.9 5.7 1-.6q-.2 0-1 .6l1.5-.9 1.6-.9.7-.3q.7-.3 1-.7t.3-.6q-3.6 2.3-5 3.4zm-2.2 1 .3-.3-.3.2 2.9-2.2q-1.4 1-2.1 1.3l-.3.1-.3.2-.2.1-.1.3v.2zm7.3-10v.2-.1q.2.3-.6 1.2t-2 1.8-1.1 1L62.5 37q-.6.4-.8 1h.4q.5 0 1-.3 1.5-.8 3.8-2.4l3-2.2q2.4-1.8 3.8-2.5h-1l-1.3.1h-1.3q-1.1.1-1.1-1v-.8l.1-.6-4.4 3.6-1.5 1.2-1.6 1.2-.4.3-.6.5q-.2.2-.1.4l5.8-4.1.5-.4q.4-.4 1-.6t.7-.2.4.2zm3.3-11.6-.3.3.3-.3-4 2.5 4.2-2.5h-.2zM70 21.5l-2 1.3 2-1.4-.1.1-1.5 1-1.5 1-1.5 1-1.6.8q-.6.4-1 .4h-.3l-.2-.1-.1.1-.1.2-.1.2-.1.2v.3q.4 0 1.5-.5l3.4-2 3.9-2.8 3.5-2.5q-1.1.5-4.3 2.7zm-9 7.6v.1l2.4-1.7 2.9-2 2.5-1.6 1.5-1 1.7-1.1 1.4-1 1.7-1.3q.7-.5 1.3-1.2H76q-.2 0-.5.3t-.4.2-.4.3-.4.2l-1.3 1-1.4 1-5.7 4q-2.3 1.5-3.7 1.9h-.5l-.1.3-.1.3q-.2.3-.4 1.3zm-.5 2.3.2-.1h-.2l.7-.4.7-.5-.4.3-.7.4-.3.3zm0 .8q.6-.2 1-.6t1.4-.9 1-.7l1.6-1 1.5-1-4.2 2.6-.7.4q-.7.3-1.1.7t-.5.5zM80 18.4l-.7.3.7-.3q-2.2 1-6.2 3.8l.4-.2.6-.3.5-.1.4.1 1-.6 1-.7 1.4-.8 1.5-1-.6-.2zm1.6 6.3v-.1.1-.2l.2-.4.4-.5.5-.6.3-.2.8-.9.8-.8-4.1 2.3.5.7.4.9.3.8q.2-.1.3-.4t.5-.5l1-.7-1.5.6-.4-.1zm4.8-1.2-.2.3.2-.3q-.5.1-1 .5t-1.2.9-1 .7l-.4.2-.4.3-.2.2q-.2.2-.1.3l.2.6 1-.9 1.2-1 1-.8 1-1zm4.5 2v.1-.1l.1-.2-.2.1v.2zm-20.5 8.3.8-.5-.8.5q2.4-1.6 3-2.5l-3.2 2.5h.2zm2.7-1.3.8-.5-.8.5 3.5-2-.5.1-.5.2-.8-.2h-.5v.3q0 .7-1.2 1.6zm6.4-3.3 1.2-.1h.3q.1 0 0-.1t.1-.2 0-.2V28l-.2-.3q-.2-.3-.1-.4l-.4-1-.4-1q0-.2-.6-.7l-.3-.2q-.2-.2-.4-.1V24l-.1-.1-.1-.1h-.1l-.2-.1-.9-.3q-.8 0-1.2-.3H76l-.9.3-.7.4q-.2.1-.3.6t-.4.7l-.3.1h-.3l-.3-.2-.3.2q-.1.2-.8.4t-.8.8q0 .7-.3 1.3v.4q0 .4-.2.4 0 .4.3.4h.4l.5-.1h.7l.3.1h.4l.4-.1q.2-.1.2 0H75l.6.1.5.1q.3-.3 1.3-.3h.8l1.5.4zm-10.4-1.9h.1l-.8.4-.7.6.4-.3.7-.3.3-.4zm.2-.8zm10.3-3.9 2.5-3.4H82l-.4.1-.5.3-.3.3-3 2 .5.2.9.3.5.2zm-9.9 2.8.5-.7-3 2.2-3.7 2.6 1.6-1 1.5-1 1-.7 1-.6.3-.1.3-.2.3-.3.2-.2zm8.5 5.1-1 1q-.5.5-.9 1.3t-.8 1q1.4-.7 5-3l-2.3-.3zm11.5-1.7-2 1.5-2.4 1.8 1.8-1L89 30l.8-.5.8-.4-.1-1-.2-1-.5.4q.3.1.3.4v.2q-.2.1-.2.3t-.2.4zm-1-4.6q-.1-.1-2.5 1.3t-3 1.8l2.4-1.3q2-1 3-1.8zm-1.4-1.7-.4-.2-.5.4h.2l.5.2q.3.2.1.4 0 .3-.2.5t-.4.5-.5.4-.3.3l1.3-.8 1.2-.7-.4-.4-.6-.6zm-1.7-1.3q-.2-.1-.7.4t-1.3 1.3-.7.9l3.3-2.1-.6-.5zm-2.2-1.7h-.6l-.2.1-.5.6-.4.6-1.6 2.2 2-1.2 2.5-1.5-.5-.5-.4-.1-.3-.2zm-5.5-1h-.8q0 .2-.7.8l-.7.5-.8.7-.7.5q-2.1 1.6-5 3.4l-5 3.4-1.2.8-1.1.7-.4.3q-.4.2-.6.5t-.2.4l3-1.8 3.5-2.5 2.9-2q5.5-4 8.4-5.7H78zm-13.6 4-.4.1-.4.2q.2 0 .3.3t.3-.2.1-.2.1-.1 0-.2zm-3.9 11.8v.1l.7-.5.8-.7.8-.7 1.3-1 1.2-1-3.7 2.2-.4.2-.5.3q-.2 0-.2.7v.4zm.8 4.9.5-.4q.5-.4.7-.2h-.6q-.7 0-.7-.6 0-.5.6-1.2.8-1 1.7-1.8t2.2-2 1.8-1.6L64 33.8l-2 1.4-.4.2-.7.5q-.3.3-.4.2.7 1.8.8 3.1zM60 40.7h.2v-.1l-.2.1zm.6 1.2v.1h-.1l-.1.2.3-.1-.1-.2zm2.2.7.2.3.3.3.7-1.1.8-.9 1-1q.5-.7.8-.8L62.3 42l.5.6zm7.4-2-.3.2.2-.1-2.7 1.7-3.2 2h.1l1.7-1.1 2.3-1.6 2-1h-.1zm-4.9 5q.2 0 .5.3t.4.3l.2-.2 1.4-1.6 1.2-1.5 1.2-1.5-5.5 3.6.3.3.3.3zm2.4 1.7.2-.2q-.2 0-.2.2l1.9-1.5 1.6-1.3q-1.7.8-4 2.4l.2.2.3.2zm3.5 1h.4l.4-.5.8-.7 1.1-1.2-2 1.2-1.9 1.1h.7l.5.1zm4.6.8q.1.1.5-.3t.6-.8.5-.6l1.4-1.5q1-1 1-1.2h-.2q-1.9 1-6.8 4.1.3.2.8.2h.9q.4 0 .6.3h.3q.3 0 .4-.2zm3.4-.3h1q.5-.5 1-.5.2 0 .6-.4t.9-1 .5-.7l-.7.5-.9.6-.7.4-1.3.7-.2.2q-.2.2-.3.1zm6.4-2.8h-.1.1l-.6.3-.4.3.4-.3.6-.3zm-2.2 1.6h-.2.2zm2.3-2.6 1.1-.8 1-.9-1.3 1-1.3.8h.5zm3.1-1.5-.8.6-1 .7q.8-.1 1.8-1.3zm-2.7-4.4q-.2 0-.4.3t-.2.4l1-.7H86zm-4.4 5-.3.5q-.3.5-.6.6h-.4l-.1.1-.2.2-.7.7-2.7 3h.5q.3 0 .7-.4t.4-.3l2.2-1.3 2.3-1.4 2.4-1.5 2.1-1.3 2.1-1.2q.5-.3.7-1.4t.3-1.2h-.6l-.5.1q-.5.2-.6.4t-1.4.8-1.7 1l-1.3.8-1.5.8q-.6.3-1 1zm-5.2 1.2-1.2-.2-.7 1-2.2 2.3q2-1.4 5.2-3.2h-1.2zm-2.7-1-.5-.2q-.5-.2-.5-.5l-.2.3-.2.4-1.2 1-1.6 1.3-1.3 1 5.5-3.2zm-2.3-2-.3-.3-.3-.4-1.6 2-1.6 1.9q2.1-1.4 4.4-2.6l-.3-.2-.3-.4zM69 37l-4.7 2.7-1.9.9-.8.3.2.3q.2.3 0 .3.2 0 2-1.3t3.5-2.1 1.6-.7q.1.1-1 1.3t-2.4 2.7T64 43l1.5-1.1 1.6-1.1q2.5-1.3 2.5-1.7-.4-1-.6-2.1zm5.1-3.1.6-.1q.3-.1.5-.4t.4-.4.3-.6.3-.5l-1.6 1.2q-1 .8-1.3.8l.3.1h.3q.3 0 .2-.1zm3 1.8.8-.3h-.2q-.5 0-.6.3zm6.7-3.3-.3.2.3-.2-2 1.3q.5 0 1-.3t1-.8.7-.6l-.4.2-.3.2zm2.6 1.6.3-.1h.3q.4 0 .6-.3 1-1 1.3-1.5l.5-.5.6-.6.5-.7q.5-.6.1-.6l-3.4 2-3.4 2h1.5l.5.2q.4.2.6 0zm4.3-.4.1-.1v-.2l-.3.2-.2.2h.4z"/>
    </g>
</svg>
